<svg
        role="img"
        width="340"
        height="84"
        aria-labelledby="loading-aria"
        viewBox="0 0 340 84"
        preserveAspectRatio="none"
>
    <title id="loading-aria">Loading...</title>
    <rect
            x="0"
            y="0"
            width="100%"
            height="100%"
            clip-path="url(#clip-path)"
            style='fill: url("#fill");'
    ></rect>
    <defs>
        <clipPath id="clip-path">
            <rect x="5" y="7" rx="0" ry="0" width="59" height="13" />
            <rect x="82" y="7" rx="0" ry="0" width="59" height="13" />
            <rect x="157" y="7" rx="0" ry="0" width="59" height="13" />
            <rect x="229" y="7" rx="0" ry="0" width="59" height="13" />
            <rect x="305" y="7" rx="0" ry="0" width="59" height="13" />
            <rect x="376" y="30" rx="0" ry="0" width="59" height="13" />
            <rect x="5" y="36" rx="0" ry="0" width="59" height="18" />
            <rect x="82" y="36" rx="0" ry="0" width="59" height="18" />
            <rect x="157" y="36" rx="0" ry="0" width="59" height="18" />
            <rect x="229" y="36" rx="0" ry="0" width="59" height="18" />
            <rect x="305" y="36" rx="0" ry="0" width="59" height="18" />
            <rect x="8" y="85" rx="0" ry="0" width="59" height="18" />
            <rect x="85" y="85" rx="0" ry="0" width="59" height="18" />
            <rect x="160" y="85" rx="0" ry="0" width="59" height="18" />
            <rect x="232" y="85" rx="0" ry="0" width="59" height="18" />
            <rect x="308" y="85" rx="0" ry="0" width="59" height="18" />
            <rect x="5" y="63" rx="0" ry="0" width="59" height="18" />
            <rect x="82" y="63" rx="0" ry="0" width="59" height="18" />
            <rect x="157" y="63" rx="0" ry="0" width="59" height="18" />
            <rect x="229" y="63" rx="0" ry="0" width="59" height="18" />
            <rect x="305" y="63" rx="0" ry="0" width="59" height="18" />
        </clipPath>
        <linearGradient id="fill">
            <stop
                    offset="0.599964"
                    stop-color="#e0e0e0"
                    stop-opacity="1"
            >
                <animate
                        attributeName="offset"
                        values="-2; -2; 1"
                        keyTimes="0; 0.25; 1"
                        dur="2s"
                        repeatCount="indefinite"
                ></animate>
            </stop>
            <stop
                    offset="1.59996"
                    stop-color="#f2f2f2"
                    stop-opacity="1"
            >
                <animate
                        attributeName="offset"
                        values="-1; -1; 2"
                        keyTimes="0; 0.25; 1"
                        dur="2s"
                        repeatCount="indefinite"
                ></animate>
            </stop>
            <stop
                    offset="2.59996"
                    stop-color="#e0e0e0"
                    stop-opacity="1"
            >
                <animate
                        attributeName="offset"
                        values="0; 0; 3"
                        keyTimes="0; 0.25; 1"
                        dur="2s"
                        repeatCount="indefinite"
                ></animate>
            </stop>
        </linearGradient>
    </defs>
</svg>