<svg id="Layer_1" data-name="Layer 1" xmlns="http://www.w3.org/2000/svg" viewBox="0 0 100 100"><defs><style>.cls-1{fill:#47b3e6;}.cls-2{fill:#fcb918;}</style></defs><path class="cls-1" d="M82.07,63.74a12.71,12.71,0,0,1-3.71-9V39.09A28.38,28.38,0,0,0,56.55,11.52v-3a6.55,6.55,0,1,0-13.1,0v3c-.76.18-1.52.4-2.27.64a29.3,29.3,0,0,0-5.72,2.61A28.32,28.32,0,0,0,21.62,39.09V54.74a12.71,12.71,0,0,1-3.71,9,16.87,16.87,0,0,0-5,12.07v2.55a6.54,6.54,0,0,0,6.54,6.54H71.81a2.18,2.18,0,1,0,0-4.35H19.45a2.2,2.2,0,0,1-2.19-2.19V75.81a12.64,12.64,0,0,1,3.74-9,17,17,0,0,0,5-12.07V39.09A24,24,0,0,1,38.73,17.91a23.28,23.28,0,0,1,5.75-2.17A23.77,23.77,0,0,1,50,15.09a24,24,0,0,1,24,24V54.74a16.91,16.91,0,0,0,5,12.07,12.71,12.71,0,0,1,3.72,9v2.55a2.19,2.19,0,0,1-2.17,2.19,2.18,2.18,0,1,0,0,4.35,6.56,6.56,0,0,0,6.54-6.54V75.81A16.89,16.89,0,0,0,82.07,63.74ZM50,10.72c-.74,0-1.49.06-2.21.12,0,0,0-.08,0-.12V8.55A2.2,2.2,0,0,1,50,6.36a2.17,2.17,0,0,1,2.17,2.19v2.17s0,.08,0,.12C51.47,10.78,50.74,10.72,50,10.72Z"/><path class="cls-1" d="M57,90.06a8.72,8.72,0,0,1-14.09,0,2.18,2.18,0,1,0-3.36,2.79,13.09,13.09,0,0,0,20.81,0A2.18,2.18,0,1,0,57,90.06Z"/><path class="cls-2" d="M33.08,73v5.59h1.38V73a5.83,5.83,0,0,1,.24-1.65L33.37,71A7.43,7.43,0,0,0,33.08,73Z"/><path class="cls-2" d="M34.08,69.31l1.2.69a7.18,7.18,0,0,1,1.54-1.87l-.91-1A8.57,8.57,0,0,0,34.08,69.31Z"/><path class="cls-2" d="M47.32,67.07,48,65.86A10,10,0,0,0,45.84,65h0a7.17,7.17,0,0,0,2.33-1.89l-1.07-.87a5.75,5.75,0,0,1-2.22,1.68,5.47,5.47,0,0,1-1.38.4,6.12,6.12,0,0,1-2,0,6.08,6.08,0,0,1-1.38-.47,5.76,5.76,0,0,1-3.23-5.17v-.94h0V54.84a2,2,0,0,0,.77-.42,4.66,4.66,0,0,0,.58-.64,13.92,13.92,0,0,0,6.39,1.78h.62a2.64,2.64,0,0,0,.84-.13l-.38-1.33a1.62,1.62,0,0,1-.66.08h-.42a14,14,0,0,1-7.14-2.47l-.82,1.11.37.25a2.16,2.16,0,0,1-.3.31.45.45,0,0,1-.32.14h0l-.9-.27v1h0V55.9a.87.87,0,0,1-.13-.45V51.74A1.63,1.63,0,0,1,37,50.12h.69v-.69a1.21,1.21,0,0,1,1.21-1.21h7.53V46.84H38.9a2.6,2.6,0,0,0-2.51,2A3,3,0,0,0,34,51.74v3.71a2.23,2.23,0,0,0,1.51,2.11v1.06a7.13,7.13,0,0,0,4.07,6.44h0a10.57,10.57,0,0,0-2.23,1l.71,1.19a8.59,8.59,0,0,1,2.06-.88v.36a2.39,2.39,0,1,0,4.77,0v-.52A8.94,8.94,0,0,1,47.32,67.07Zm-3.81-.36a1,1,0,0,1-2,0v-.64a10.37,10.37,0,0,1,2-.07Z"/><rect class="cls-2" x="38.21" y="72.49" width="1.38" height="6.13"/><path class="cls-2" d="M65.93,60.62V49.71a4.06,4.06,0,0,0-3.68-4l-1.52-1.74a1.38,1.38,0,0,0-1-.47,1.38,1.38,0,0,0-1.38.84,7.24,7.24,0,0,0-3-.64H54.23A7.29,7.29,0,0,0,47,50.93v7a7.85,7.85,0,0,0,5.11,7.35h0A9.21,9.21,0,0,0,45.76,74v4.62h1.76V72.49h-.23a7.81,7.81,0,0,1,5-5.82v.41a2.54,2.54,0,1,0,5.08,0v-.52A7.84,7.84,0,0,1,62.77,74v4.62h1.38V74a9.21,9.21,0,0,0-6.47-8.78,7.83,7.83,0,0,0,3.15-2.29H66.9V61.55a1,1,0,0,1-.71-.26A1,1,0,0,1,65.93,60.62ZM48.34,50.93A5.89,5.89,0,0,1,54.23,45h1.18a5.85,5.85,0,0,1,3.72,1.33h0l.17.2.91,1,.21.24a5.85,5.85,0,0,1,.87,3.08v1.55a6.37,6.37,0,0,1-2.1-.71,9.36,9.36,0,0,1-1.38-.9,13.73,13.73,0,0,1-2.12-2A1,1,0,0,0,55,48.5a1,1,0,0,0-.75.35c-.66.8-3,3.28-5.86,3.64ZM56,67.08a1.16,1.16,0,1,1-2.32,0V66.3A8,8,0,0,1,55,66.19a6.67,6.67,0,0,1,1,.07Zm1.38-3.22a6.15,6.15,0,0,1-1.38.42,6.78,6.78,0,0,1-2.32,0,6.15,6.15,0,0,1-1.38-.42,6.46,6.46,0,0,1-3.92-5.94v-4c3.12-.31,5.58-2.64,6.61-3.78a14.76,14.76,0,0,0,2.87,2.45,10.75,10.75,0,0,0,1.38.75,7.24,7.24,0,0,0,2.06.57v4.05a6.5,6.5,0,0,1-2.38,5A6.32,6.32,0,0,1,57.34,63.86Zm4.41-2.31a7.65,7.65,0,0,0,.9-3.63V55.85h0V50.93a7.16,7.16,0,0,0-.54-2.74,1.32,1.32,0,0,0,.29-.19,1.45,1.45,0,0,0,.45-.77,2.67,2.67,0,0,1,1.67,2.48v10.9a2.32,2.32,0,0,0,.19.94Z"/><rect class="cls-2" x="50.16" y="73.41" width="1.38" height="5.21"/><rect class="cls-2" x="58.84" y="73.41" width="1.38" height="5.21"/></svg>