<svg id="Layer_1" data-name="Layer 1" xmlns="http://www.w3.org/2000/svg" viewBox="0 0 100 100"><defs><style>.cls-1{fill:#99dfff;}.cls-2{fill:#deaa9b;}.cls-3{fill:#ffc4b3;}.cls-4{fill:#754c24;}.cls-5{fill:#6dd9a8;}.cls-6{fill:#ffd4c7;}.cls-7{fill:#945f2e;}.cls-8{fill:#fcb918;}.cls-9{fill:#fcd16a;}.cls-10{fill:#fcda88;}</style></defs><path class="cls-1" d="M4,92.9V79.85A21.91,21.91,0,0,1,25.83,58h0A21.91,21.91,0,0,1,47.67,79.85V92.9"/><rect class="cls-2" x="19.86" y="52.1" width="11.94" height="15.61" rx="5.97"/><rect class="cls-3" x="6.82" y="10.92" width="38" height="47.51" rx="19"/><path class="cls-4" d="M44.82,28.83S32.31,33.82,14,25.5c0,0-2.37,5.2-4.76,4.81,0,0,1.21,5.77-1.93,5.77s-4.1-1.94-4.1-4.86S1.43,14.37,9.74,14.47c0,0,1.44-5.17,6.61-5.17H37.07C40.09,9.3,44.82,9.87,44.82,28.83Z"/><path class="cls-5" d="M34.43,92.9v-11A23.86,23.86,0,0,1,58.21,58.12h0A23.86,23.86,0,0,1,82,81.9v11"/><rect class="cls-3" x="51.71" y="52.1" width="12.99" height="16.99" rx="6.5"/><path class="cls-4" d="M74,8.32S87.13,5.27,87.29,15s0,29.82,0,29.82S87,49.8,90,51.2H73.76"/><rect class="cls-6" x="37.53" y="0.94" width="41.37" height="57.65" rx="20.68"/><path class="cls-7" d="M78.9,21.63v6.9c-10.66.22-20.32-10.66-20.32-10.66a32,32,0,0,1-21,10.66v-6.9a20.69,20.69,0,0,1,41.37,0Z"/><rect class="cls-5" x="67.18" y="3.9" width="14.06" height="5.08" rx="2.54" transform="translate(26.29 -50.59) rotate(45)"/><path class="cls-8" d="M77.1,60.54a21.16,21.16,0,0,1,0-2.39A3.84,3.84,0,0,1,80,54.73c.11,0,.24,0,.31-.13h1.4A4.44,4.44,0,0,1,84,55.9a3.77,3.77,0,0,1,1,2.49c0,.61,0,1.22,0,1.83,0,.28.09.39.35.49a12.49,12.49,0,0,1,8.1,11.74c0,2.67,0,5.35,0,8A6,6,0,0,0,95,84.76a6.94,6.94,0,0,1,1.49,2.63c-.11.14-.26.1-.4.1H81V60.55a2.25,2.25,0,0,1,0-.26c0-.2-.08-.28-.28-.28a7.93,7.93,0,0,0-1.82.13Z"/><path class="cls-9" d="M77.1,60.54l1.81-.4A7.93,7.93,0,0,1,80.73,60c.2,0,.29.08.28.28a2.25,2.25,0,0,0,0,.26V87.49H65.54a7.24,7.24,0,0,1,1.57-2.78,6.15,6.15,0,0,0,1.58-4.27c0-2.8,0-5.61,0-8.41a12.29,12.29,0,0,1,7.82-11.22A1.46,1.46,0,0,0,77.1,60.54Z"/><path class="cls-9" d="M81,87.49H96.07c.14,0,.29,0,.4-.1A6.54,6.54,0,0,1,97,89.78c0,.73,0,1.45,0,2.18a2.1,2.1,0,0,1-2.09,2.09c-2.85,0-5.69,0-8.53,0L81,94V87.5Z"/><path class="cls-10" d="M81,87.5c0,2.17,0,4.35,0,6.52l-5.32,0c-2.8,0-5.6,0-8.4,0a2.12,2.12,0,0,1-2.21-2,12.53,12.53,0,0,1,.32-4.18c0-.12.1-.24.15-.36Z"/><path class="cls-8" d="M75.68,94,81,94l5.35,0a5.34,5.34,0,0,1-10.67,0Z"/></svg>