<svg id="Layer_1" data-name="Layer 1" xmlns="http://www.w3.org/2000/svg" viewBox="0 0 100 100"><defs><style>.cls-1{fill:#47b3e6;}.cls-2{fill:#fcb918;}.cls-3{fill:#49bb88;}</style></defs><rect class="cls-1" x="17.14" y="6.45" width="3.63" height="14.68"/><rect class="cls-1" x="27.28" y="6.45" width="3.63" height="14.68"/><rect class="cls-1" x="37.43" y="6.45" width="3.63" height="14.68"/><rect class="cls-1" x="47.58" y="6.45" width="3.63" height="14.68"/><rect class="cls-1" x="57.73" y="6.45" width="3.63" height="14.68"/><rect class="cls-1" x="67.87" y="6.45" width="3.63" height="14.68"/><rect class="cls-1" x="78.02" y="6.45" width="3.63" height="14.68"/><path class="cls-2" d="M39.2,91.42a25.22,25.22,0,0,1-7.58-5.14l2.54-2.6a21.55,21.55,0,0,0,6.5,4.41Z"/><path class="cls-2" d="M49.39,93.55a25.38,25.38,0,0,1-6.15-.75l.88-3.53a21.71,21.71,0,1,0-12-8L29.18,83.5A25.09,25.09,0,0,1,24,68.19,25.36,25.36,0,1,1,49.39,93.55Z"/><polygon class="cls-3" points="46.28 76.32 37.43 67.47 40 64.9 46.28 71.19 58.79 58.69 61.36 61.25 46.28 76.32"/><rect class="cls-1" x="4.58" y="29.97" width="91.11" height="3.63"/><path class="cls-1" d="M91.32,84.76H74.52V81.12h16.8a2.55,2.55,0,0,0,2.55-2.55V20.12a2.55,2.55,0,0,0-2.55-2.55H8.68a2.55,2.55,0,0,0-2.55,2.55V78.57a2.55,2.55,0,0,0,2.55,2.55h15v3.64h-15A6.19,6.19,0,0,1,2.5,78.57V20.12a6.18,6.18,0,0,1,6.18-6.18H91.32a6.18,6.18,0,0,1,6.18,6.18V78.57A6.19,6.19,0,0,1,91.32,84.76Z"/></svg>