<svg id="Layer_1" data-name="Layer 1" xmlns="http://www.w3.org/2000/svg" viewBox="0 0 100 100"><defs><style>.cls-1{fill:#47b3e6;}</style></defs><rect class="cls-1" x="17.14" y="7.21" width="3.63" height="14.68"/><rect class="cls-1" x="27.28" y="7.21" width="3.63" height="14.68"/><rect class="cls-1" x="37.43" y="7.21" width="3.63" height="14.68"/><rect class="cls-1" x="47.58" y="7.21" width="3.63" height="14.68"/><rect class="cls-1" x="57.73" y="7.21" width="3.63" height="14.68"/><rect class="cls-1" x="67.87" y="7.21" width="3.63" height="14.68"/><rect class="cls-1" x="78.02" y="7.21" width="3.63" height="14.68"/><path class="cls-1" d="M97.21,5.69a1.52,1.52,0,1,1-3,0"/><path class="cls-1" d="M39.2,92.18A25.22,25.22,0,0,1,31.62,87l2.54-2.6a21.55,21.55,0,0,0,6.5,4.41Z"/><path class="cls-1" d="M49.39,94.31a25.38,25.38,0,0,1-6.15-.75L44.12,90a21.71,21.71,0,1,0-12-8l-2.89,2.19A25.09,25.09,0,0,1,24,69,25.36,25.36,0,1,1,49.39,94.31Z"/><polygon class="cls-1" points="46.28 77.08 37.43 68.23 40 65.66 46.28 71.95 58.79 59.45 61.36 62.01 46.28 77.08"/><rect class="cls-1" x="4.58" y="30.73" width="91.11" height="3.63"/><path class="cls-1" d="M91.32,85.52H74.52V81.88h16.8a2.55,2.55,0,0,0,2.55-2.55V20.88a2.55,2.55,0,0,0-2.55-2.55H8.68a2.55,2.55,0,0,0-2.55,2.55V79.33a2.55,2.55,0,0,0,2.55,2.55h15v3.64h-15A6.19,6.19,0,0,1,2.5,79.33V20.88A6.18,6.18,0,0,1,8.68,14.7H91.32a6.18,6.18,0,0,1,6.18,6.18V79.33A6.19,6.19,0,0,1,91.32,85.52Z"/></svg>