<svg id="Layer_1" data-name="Layer 1" xmlns="http://www.w3.org/2000/svg" viewBox="0 0 100 100"><defs><style>.cls-1{fill:#9277b6;}.cls-2{fill:#b6e6d0;}.cls-3{fill:#fcd576;}.cls-4{fill:#fff;}.cls-5{fill:#49bb88;}.cls-6{fill:#47b3e6;}</style></defs><path class="cls-1" d="M97.5,21.78v10H2.5v-10a6,6,0,0,1,6-6h83A6,6,0,0,1,97.5,21.78Z"/><path class="cls-2" d="M97.5,31.78V80.54a6,6,0,0,1-6,6H8.53a6,6,0,0,1-6-6V31.78Z"/><path class="cls-3" d="M49.4,93.24A23.23,23.23,0,1,1,72.63,70,23.26,23.26,0,0,1,49.4,93.24Z"/><path class="cls-4" d="M49.4,48.28A21.73,21.73,0,1,1,27.67,70,21.73,21.73,0,0,1,49.4,48.28m0-3A24.73,24.73,0,1,0,74.13,70,24.75,24.75,0,0,0,49.4,45.28Z"/><polygon class="cls-5" points="46.29 78.14 37.43 69.29 40 66.72 46.29 73 58.79 60.5 61.36 63.07 46.29 78.14"/><rect class="cls-6" x="17.14" y="8.26" width="3.63" height="14.68"/><rect class="cls-6" x="27.28" y="8.26" width="3.63" height="14.68"/><rect class="cls-6" x="37.43" y="8.26" width="3.63" height="14.68"/><rect class="cls-6" x="47.58" y="8.26" width="3.63" height="14.68"/><rect class="cls-6" x="57.73" y="8.26" width="3.63" height="14.68"/><rect class="cls-6" x="67.88" y="8.26" width="3.63" height="14.68"/><rect class="cls-6" x="78.02" y="8.26" width="3.63" height="14.68"/><rect class="cls-4" x="2.5" y="31.78" width="95.01" height="3.63"/></svg>