<svg id="Layer_1" data-name="Layer 1" xmlns="http://www.w3.org/2000/svg" viewBox="0 0 100 100"><defs><style>.cls-1{fill:#47b3e6;}.cls-2{fill:#fff;}</style></defs><path class="cls-1" d="M95.35,17.34a3.15,3.15,0,0,0-1.84-1.61L58.79,3.93a3.21,3.21,0,0,0-4.07,2L50.25,19.08l-.77,2.27-.77,2.27,1.63,4.52.78-2.27.77-2.28L57.56,6.9a.2.2,0,0,1,.26-.13l34.72,11.8a.22.22,0,0,1,.13.25L90.57,25l-1,2.86L82.44,48.93l-1,3h3.17l.51-1.5L85.61,49l9.9-29.16A3.16,3.16,0,0,0,95.35,17.34ZM39.61,50.43l-.51,1.5h3.16l.51-1.5.51-1.5H40.11Z"/><path class="cls-1" d="M70.23,18.81a5.41,5.41,0,1,0-6.6,7.52,5.55,5.55,0,0,0,1.74.28,5.42,5.42,0,0,0,4.86-7.8ZM67.65,22a2.41,2.41,0,1,1-2.27-3.18,2.63,2.63,0,0,1,.77.12A2.41,2.41,0,0,1,67.65,22Z"/><path class="cls-1" d="M92.12,25.6l-1.26,2.72a6.83,6.83,0,0,0-1.26-.45c-4.81-1.25-8.84,3.2-12.73,7.53-3.28,3.63-6.39,7.08-10,7.08a6.07,6.07,0,0,1-1.32-.15c-3.14-.73-4.67-3-5.9-4.75-.91-1.33-1.7-2.48-3-2.95a2.47,2.47,0,0,0-.84-.14,5.38,5.38,0,0,0-1.54.16,10.79,10.79,0,0,0-1.44.4l-1-2.82c.48-.16,1-.31,1.45-.42a13.36,13.36,0,0,1,1.49-.27,6.54,6.54,0,0,1,3,.28c2.17.8,3.36,2.53,4.41,4.07s2.09,3,4.1,3.52c2.47.56,5.36-2.63,8.42-6,4.17-4.64,9.3-10.31,15.93-8.38A11.39,11.39,0,0,1,92.12,25.6Z"/><path class="cls-2" d="M39.26,23.34a1.51,1.51,0,0,0-1.28-1c-4.86-1-9.71-2-14.57-2.94-1.27-.25-1.76.53-1.25,2,.86,2.39,1.72,4.77,2.59,7.16l2.64,7.31c.5,1.36,1.4,1.64,2.19.67L38.9,24.91A1.5,1.5,0,0,0,39.26,23.34Zm-10.4,10-4-11,11,2.23Z"/><path class="cls-2" d="M60.27,51.17,60,50.43l-.54-1.5L54.29,34.65l-1-2.84-2.15-5.94-1.64-4.52L43.61,5.12a1.72,1.72,0,0,0-2.18-1L7,16.56a1.71,1.71,0,0,0-1,2.18l7.71,21.34.55,1.5.54,1.5H36a.82.82,0,0,1,.81.81v8H60.36A1.66,1.66,0,0,0,60.27,51.17ZM7.34,18.23A.19.19,0,0,1,7.46,18L41.94,5.51l.07,0a.2.2,0,0,1,.19.14l6.51,18,1.63,4.52,1.48,4.09,1,2.82h0l5,13.87h-18v-5A3.82,3.82,0,0,0,36,40.08H15.24Z"/><path class="cls-1" d="M61.68,50.66l-.08-.23-.55-1.5L55.83,34.49l-1.07-3-2.87-7.95-1.64-4.51L45,4.61a3.2,3.2,0,0,0-4.1-1.93L6.44,15.15a3.21,3.21,0,0,0-1.93,4.1l7.61,21,.51,1.41.51,1.42a.59.59,0,0,1,.23,0h3l-.54-1.5-.54-1.5L7.34,18.23A.19.19,0,0,1,7.46,18L41.94,5.51l.07,0a.2.2,0,0,1,.19.14l6.51,18,1.63,4.52,1.48,4.09,1,2.82h0l5,13.87.54,1.5.45,1.25a.21.21,0,0,1-.11.25h3.11A3.11,3.11,0,0,0,61.68,50.66Z"/><path class="cls-1" d="M39.26,23.34a1.51,1.51,0,0,0-1.28-1c-4.86-1-9.71-2-14.57-2.94-1.27-.25-1.76.53-1.25,2,.86,2.39,1.72,4.77,2.59,7.16l2.64,7.31c.5,1.36,1.4,1.64,2.19.67L38.9,24.91A1.5,1.5,0,0,0,39.26,23.34Zm-10.4,10-4-11,11,2.23Z"/><path class="cls-2" d="M85.27,50.43H38.35V43.89A2.32,2.32,0,0,0,36,41.58H13.37a2.25,2.25,0,0,0-.74.12,2.33,2.33,0,0,0-1.57,2.19v49.8A2.32,2.32,0,0,0,13.37,96h71.9a2.32,2.32,0,0,0,2.31-2.32V52.75A2.32,2.32,0,0,0,85.27,50.43Zm.81,43.26a.83.83,0,0,1-.81.82H13.37a.83.83,0,0,1-.81-.82V43.89a.82.82,0,0,1,.58-.77.59.59,0,0,1,.23,0H36a.82.82,0,0,1,.81.81v8H85.27a.83.83,0,0,1,.81.82Z"/><path class="cls-1" d="M85.61,49l-.34,0H39.85v-5A3.82,3.82,0,0,0,36,40.08H13.37a4,4,0,0,0-1.25.21,3.82,3.82,0,0,0-2.56,3.6v49.8a3.82,3.82,0,0,0,3.81,3.82h71.9a3.82,3.82,0,0,0,3.81-3.82V52.75A3.81,3.81,0,0,0,85.61,49Zm.47,44.74a.83.83,0,0,1-.81.82H13.37a.83.83,0,0,1-.81-.82V43.89a.82.82,0,0,1,.58-.77.59.59,0,0,1,.23,0H36a.82.82,0,0,1,.81.81v8H85.27a.83.83,0,0,1,.81.82Z"/></svg>