<svg id="Layer_1" data-name="Layer 1" xmlns="http://www.w3.org/2000/svg" viewBox="0 0 100 100"><defs><style>.cls-1{fill:#47b3e6;}</style></defs><path class="cls-1" d="M30.15,32.63a1.92,1.92,0,0,0-.14.15,10,10,0,0,0-8.47,11.94c1.07,6.46,7.7,10.29,13.92,8.76,6-1.48,9.72-8,8.47-14S35.81,28.63,30.15,32.63ZM34.3,51.11C23.48,53.21,20.13,37.57,30,34.44a1.17,1.17,0,0,0,1.3.17C42.36,29.73,45.5,48.94,34.3,51.11Z"/><path class="cls-1" d="M38.62,45.78l-6.2-8.44a1,1,0,0,0-1.73.22,15.27,15.27,0,0,0-1,5.23,1.08,1.08,0,0,0-.53,2.08l.66.19a16.36,16.36,0,0,0,.6,2.74.66.66,0,0,0,1.28-.33,15.17,15.17,0,0,1-.31-1.95c2,.59,4.06,1.19,6.1,1.73C38.25,47.45,39.17,46.52,38.62,45.78ZM31.9,39.85l3.3,4.59c-1.29-.4-2.58-.79-3.88-1.17A15.49,15.49,0,0,1,31.9,39.85Z"/><path class="cls-1" d="M94.87,76.31s-.05,0-.05.07c-1.39,4.65-3.71,6.37-8.62,6.37H72.44v3c0,1.28,0,2.57,0,3.85,0,.84-.06,1.6-1,2s-1.43-.14-2-.7c-1.47-1.5-3-3-4.69-4.73-.44.55-.79,1.09-1.23,1.54-1.13,1.18-2.3,2.33-3.46,3.48a1.47,1.47,0,0,1-1.67.42,1.49,1.49,0,0,1-1-1.52c0-2.39,0-4.78,0-7.27-.43,0-.79-.06-1.16-.06H13.15c-3.86,0-6.79-2.07-7.72-5.49A9,9,0,0,1,5.14,75q0-26.67,0-53.36a7.46,7.46,0,0,1,7.66-7.72H87.19a7.47,7.47,0,0,1,7.52,6,4,4,0,0,0,.16.49ZM72.44,79.76H86.91c3.16,0,5-1.85,5-5V21.89c0-3.12-1.83-5-4.94-5H13.08c-3.12,0-5,1.84-5,4.95V74.79c0,3.12,1.83,5,5,5H56.53c.31,0,.61,0,1-.06V78.54c0-5.55.07-11.1,0-16.65,0-2.94.51-5.93-.61-8.82-.23-.62-.41-1-1.1-1.1a3.7,3.7,0,0,1-3.21-4.77,1.11,1.11,0,0,0-.6-1.43,3.7,3.7,0,0,1-1.1-5.64,1.1,1.1,0,0,0,0-1.55A3.7,3.7,0,0,1,52,33a1.08,1.08,0,0,0,.59-1.36,3.73,3.73,0,0,1,3.3-4.86,1,1,0,0,0,1-.94c.43-2.61,2.3-3.89,4.84-3.3A1.11,1.11,0,0,0,63,21.9a3.7,3.7,0,0,1,5.63-1.15,1.1,1.1,0,0,0,1.55,0,3.7,3.7,0,0,1,5.64,1.12,1.13,1.13,0,0,0,1.44.59,3.72,3.72,0,0,1,4.77,3.22,1,1,0,0,0,1,1,3.72,3.72,0,0,1,3.23,4.83,1.09,1.09,0,0,0,.58,1.37A3.7,3.7,0,0,1,88,38.64a1.07,1.07,0,0,0,0,1.48,3.69,3.69,0,0,1-1.16,5.68,1.05,1.05,0,0,0-.56,1.3A3.75,3.75,0,0,1,83.06,52c-.31,0-.77.26-.84.49a11.58,11.58,0,0,0-.79,3.26c-.07,6.25,0,12.5,0,18.75a8.42,8.42,0,0,1,0,.87A1.46,1.46,0,0,1,79,76.45a6.22,6.22,0,0,1-.71-.65l-4.49-4.49c-.5.69-1.29,1.28-1.34,1.93C72.33,75.36,72.44,77.5,72.44,79.76Zm-17-31.64c0,.58.2.77.89.91a3.78,3.78,0,0,1,3.48,3.48c.12.76.48,1,1.2.85,2.23-.44,3.38,0,4.59,1.91a.84.84,0,0,0,1.38.29c1.9-1.3,3.07-1.3,5,0,.55.37,1,.31,1.32-.26a3.81,3.81,0,0,1,4.66-2c.66.17,1-.06,1.17-.78A3.75,3.75,0,0,1,82.54,49c.9-.17,1.07-.43.86-1.32a3.77,3.77,0,0,1,1.83-4.41c.79-.49.85-.79.33-1.53a3.73,3.73,0,0,1,0-4.84c.51-.71.44-1-.28-1.49A3.77,3.77,0,0,1,83.41,31c.2-.89,0-1.17-.89-1.31a3.82,3.82,0,0,1-3.4-3.36c-.16-1-.38-1.11-1.34-.89a3.79,3.79,0,0,1-4.36-1.79c-.53-.86-.8-.92-1.59-.36a3.77,3.77,0,0,1-4.78,0c-.76-.55-1-.49-1.54.28a3.82,3.82,0,0,1-4.41,1.87c-1-.23-1.15-.1-1.34.9a3.79,3.79,0,0,1-3.41,3.35c-.87.14-1.06.43-.86,1.33a3.76,3.76,0,0,1-1.82,4.41c-.8.5-.86.79-.33,1.53a3.75,3.75,0,0,1,0,4.77c-.58.81-.52,1.09.3,1.6a3.76,3.76,0,0,1,1.82,4.34C55.46,47.83,55.43,48,55.4,48.12Zm14,27.82c-.68.72-1.37,1-2.18.6s-.76-1.29-.76-2.08V58.85a4,4,0,0,1-3.53-2.13,1.29,1.29,0,0,0-.89-.53,6.48,6.48,0,0,0-1.47.28v30.1l3-3c1.1-1.1,1.77-1.1,2.88,0,1,1,1.89,1.94,3,3.08Zm9-19.5a2.72,2.72,0,0,1-.52-.08,1.74,1.74,0,0,0-2.33.93,3.63,3.63,0,0,1-5.12.84c-.27-.19-.55-.37-.88-.58V71.62l3-3c1.13-1.13,1.78-1.12,2.94,0,.62.61,1.23,1.24,1.85,1.85l1.11,1.1Z"/><path class="cls-1" d="M14.09,48.32V33.86c0-4.78,3.18-8,8-8q12.93,0,25.85,0a3.86,3.86,0,0,1,1,.08,1.46,1.46,0,0,1-.11,2.86,7.07,7.07,0,0,1-1.13.05q-12.75,0-25.5,0a4.93,4.93,0,0,0-3.69,1.3,4.7,4.7,0,0,0-1.36,3.49q0,14.64,0,29.27a4.48,4.48,0,0,0,4.81,4.82H49.24a4.08,4.08,0,0,1,1.21.12,1.46,1.46,0,0,1-.2,2.83,5.23,5.23,0,0,1-.79,0H21.94a7.41,7.41,0,0,1-7.58-5.64,10.24,10.24,0,0,1-.26-2.34C14.08,58,14.09,53.14,14.09,48.32Z"/><path class="cls-1" d="M35.14,62.42c-1.73,1.28-3.6,1.53-6.68-1.31a9.57,9.57,0,0,1-4.69,3.5,1.46,1.46,0,0,1-2.05-.73,1.5,1.5,0,0,1,.88-2c.13-.06.28-.1.4-.17.56-.31,1.13-.61,1.67-1a3.91,3.91,0,0,0,1.81-3.22c.06-1,.49-1.61,1.29-1.69a1.57,1.57,0,0,1,1.7,1.21A5.9,5.9,0,0,0,31.86,60c.89.57,1.23.43,1.4-.58a1.45,1.45,0,0,1,1.19-1.33,1.66,1.66,0,0,1,1.69.82,3.56,3.56,0,0,0,1.57,1.25,24.76,24.76,0,0,0,7.55,1.28A1.51,1.51,0,0,1,47,63c0,.86-.7,1.43-1.75,1.44A28.46,28.46,0,0,1,35.14,62.42Z"/><path class="cls-1" d="M69.44,51.32a12,12,0,1,1,12-11.89A11.93,11.93,0,0,1,69.44,51.32Zm0-3a9,9,0,1,0-8.93-9A8.93,8.93,0,0,0,69.42,48.32Z"/></svg>