<svg id="Layer_1" data-name="Layer 1" xmlns="http://www.w3.org/2000/svg" viewBox="0 0 100 100"><defs><style>.cls-1{fill:#fcd16a;}.cls-2{fill:#9277b6;}.cls-3{fill:#c7bfd1;}.cls-4{fill:#99dfff;}.cls-5{fill:#47b3e6;}.cls-6{fill:#fdfdfd;}.cls-7{fill:#6dd9a8;}.cls-8{fill:#fefefd;}</style></defs><path class="cls-1" d="M100,14V78.09a1.05,1.05,0,0,0-.13.26c-1,3.8-3.39,5.61-7.35,5.61H74.21c0-.42,0-.84,0-1.26l-.06-8.91a39.55,39.55,0,0,1,3.09-3.25c.38-.41.62-.11.87.15,1,1,2.09,2,3.1,3.11a2,2,0,0,0,2.18.7,1.84,1.84,0,0,0,1.15-2q0-9.7,0-19.42a7.23,7.23,0,0,0,.83-2c.32-1.79.84-2.27,2.64-2.59a2.64,2.64,0,0,0,2.25-3.49,2.67,2.67,0,0,1,1.36-3.39c1.72-1,2-2.45.9-4.11a2.78,2.78,0,0,1,0-3.75c1.13-1.65.82-3.06-.9-4.1a2.67,2.67,0,0,1-1.35-3.39,2.5,2.5,0,0,0-2-3.39,3.2,3.2,0,0,1-3.06-3.06,2.5,2.5,0,0,0-3.21-2c-1.91.45-2.6.17-3.65-1.49a2.64,2.64,0,0,0-3.89-.84c-1.72,1.17-2.29,1.17-4,0a2.57,2.57,0,0,0-3.81.75c-.14.22-.27.45-.42.66a2.62,2.62,0,0,1-2.83,1c-2.1-.56-3.3.16-3.78,2.29l-42.67,0a6.45,6.45,0,0,0-1.46.11A8.64,8.64,0,0,0,8.6,28.91q0,16.7,0,33.39a15.22,15.22,0,0,0,.17,2.33,8.4,8.4,0,0,0,8.3,7.21H60.32V84H7.21C3.08,84,0,81.06,0,77.09Q0,46,0,15a6.26,6.26,0,0,1,.67-2.92A6.85,6.85,0,0,1,7.3,8.13h86a6.65,6.65,0,0,1,4.72,2A8.05,8.05,0,0,1,100,14Z"/><path class="cls-2" d="M59.54,20.26c.48-2.13,1.68-2.85,3.78-2.29a2.62,2.62,0,0,0,2.83-1c.15-.21.28-.44.42-.66a2.57,2.57,0,0,1,3.81-.75c1.75,1.15,2.32,1.15,4,0a2.64,2.64,0,0,1,3.89.84c1,1.66,1.74,1.94,3.65,1.49a2.5,2.5,0,0,1,3.21,2,3.2,3.2,0,0,0,3.06,3.06,2.5,2.5,0,0,1,2,3.39,2.67,2.67,0,0,0,1.35,3.39c1.72,1,2,2.45.9,4.1a2.78,2.78,0,0,0,0,3.75c1.13,1.66.82,3.07-.9,4.11a2.67,2.67,0,0,0-1.36,3.39A2.64,2.64,0,0,1,88,48.56c-1.8.32-2.32.8-2.64,2.59a7.23,7.23,0,0,1-.83,2,3.91,3.91,0,0,1-2.8.37,2.58,2.58,0,0,0-3.17,1.18c-1.26,2-2.52,2.25-4.5.88a2.43,2.43,0,0,0-3.32.26c-2.52,1-3,.82-4.51-1.39a2.59,2.59,0,0,0-2.92-1,2.74,2.74,0,0,1-2.89-.52A3.06,3.06,0,0,1,59.54,51a2.58,2.58,0,0,0-2.32-2.38c-2.24-.35-3-1.55-2.53-3.77a2.64,2.64,0,0,0-1.22-3c-2-1.29-2.25-2.53-.88-4.52a2.57,2.57,0,0,0,0-3.17c-1.37-2-1.13-3.25.88-4.52a2.48,2.48,0,0,0,1.22-2.91,3.55,3.55,0,0,1,.42-3.06,5.59,5.59,0,0,1,2.33-.88A2.61,2.61,0,0,0,59.54,20.26ZM86.15,35.69a13.76,13.76,0,1,0-27.52,0,13.76,13.76,0,1,0,27.52,0Z"/><path class="cls-3" d="M59.54,20.26a2.61,2.61,0,0,1-2.1,2.48,5.59,5.59,0,0,0-2.33.88q-18.75,0-37.48,0a5.15,5.15,0,0,0-5.54,5.45q0,17,0,34a5.15,5.15,0,0,0,5.38,5.43q21.42,0,42.85,0v3.37H17.06a8.4,8.4,0,0,1-8.3-7.21,15.22,15.22,0,0,1-.17-2.33q0-16.69,0-33.39a8.64,8.64,0,0,1,6.81-8.52,6.45,6.45,0,0,1,1.46-.11Z"/><path class="cls-4" d="M60.32,71.84V68.47l0-1.27q0-7.16,0-14.3a2.74,2.74,0,0,0,2.89.52,2.59,2.59,0,0,1,2.92,1c1.51,2.21,2,2.36,4.51,1.39,0,2.08,0,4.16,0,6.24,0,3.57,0,7.15,0,10.72a1.58,1.58,0,0,0,.84,1.62,1.79,1.79,0,0,0,2-.22c.18-.14.38-.25.57-.37l.06,8.91c0,.42,0,.84,0,1.26,0,1.88,0,3.77,0,5.66a2,2,0,0,1-1.08,2.11A1.89,1.89,0,0,1,70.84,91c-1-1-2.09-2.06-3.09-3.12-.39-.41-.62-.39-1,0-1.06,1.1-2.16,2.16-3.24,3.25a1.77,1.77,0,0,1-3.17-1.34c0-1.95,0-3.91,0-5.86Z"/><path class="cls-5" d="M74.12,73.79c-.19.12-.39.23-.57.37a1.79,1.79,0,0,1-2,.22,1.58,1.58,0,0,1-.84-1.62c0-3.57,0-7.15,0-10.72,0-2.08,0-4.16,0-6.24A2.43,2.43,0,0,1,74,55.54c2,1.37,3.24,1.12,4.5-.88a2.58,2.58,0,0,1,3.17-1.18,3.91,3.91,0,0,0,2.8-.37q0,9.7,0,19.42a1.84,1.84,0,0,1-1.15,2,2,2,0,0,1-2.18-.7c-1-1.06-2.06-2.07-3.1-3.11-.25-.26-.49-.56-.87-.15A39.55,39.55,0,0,0,74.12,73.79Z"/><path class="cls-6" d="M60.37,52.9q0,7.14,0,14.3l0,1.27q-21.43,0-42.85,0A5.15,5.15,0,0,1,12.09,63q0-17,0-34a5.15,5.15,0,0,1,5.54-5.45q18.74,0,37.48,0a3.55,3.55,0,0,0-.42,3.06,2.48,2.48,0,0,1-1.22,2.91c-2,1.27-2.25,2.53-.88,4.52a2.57,2.57,0,0,1,0,3.17c-1.37,2-1.13,3.23.88,4.52a2.64,2.64,0,0,1,1.22,3c-.52,2.22.29,3.42,2.53,3.77A2.58,2.58,0,0,1,59.54,51,3.06,3.06,0,0,0,60.37,52.9ZM43.59,64.59h.81c1.35,0,2.13-.64,2.13-1.74s-.75-1.77-2.12-1.73a31.13,31.13,0,0,1-8.62-1.44A2.51,2.51,0,0,1,34,58.29a1.61,1.61,0,0,0-1.89-1,1.71,1.71,0,0,0-1.43,1.63c-.14,1-.57,1.2-1.45.66a6.9,6.9,0,0,1-2.89-3.45c-.44-1.09-1.18-1.58-2.05-1.41s-1.38.85-1.43,2A4.36,4.36,0,0,1,21,60.21a13.26,13.26,0,0,1-2.63,1.46,1.71,1.71,0,1,0,1.23,3.19,12.16,12.16,0,0,0,4.53-2.79c.39-.39.7-1.11,1.1-1.14s.83.62,1.26.94c1.95,1.46,4,2.12,6.16.5.27-.19.46-.08.71,0A32.19,32.19,0,0,0,43.59,64.59ZM19,30.52"/><path class="cls-7" d="M86.15,35.69a13.76,13.76,0,1,1-27.52,0,13.76,13.76,0,1,1,27.52,0Zm-24.06,0a10.34,10.34,0,1,0,10.4-10.32A10.34,10.34,0,0,0,62.09,35.67Z"/><path class="cls-4" d="M43.59,64.59A32.19,32.19,0,0,1,33.37,62.4c-.25-.11-.44-.22-.71,0-2.19,1.62-4.21,1-6.16-.5-.43-.32-.87-1-1.26-.94s-.71.75-1.1,1.14a12.16,12.16,0,0,1-4.53,2.79,1.71,1.71,0,1,1-1.23-3.19A13.26,13.26,0,0,0,21,60.21a4.36,4.36,0,0,0,1.86-3.48c.05-1.19.52-1.86,1.43-2s1.61.32,2.05,1.41a6.9,6.9,0,0,0,2.89,3.45c.88.54,1.31.33,1.45-.66a1.71,1.71,0,0,1,1.43-1.63,1.61,1.61,0,0,1,1.89,1,2.51,2.51,0,0,0,1.78,1.39,31.13,31.13,0,0,0,8.62,1.44c1.37,0,2.12.63,2.12,1.73s-.78,1.73-2.13,1.74Z"/><path class="cls-8" d="M62.09,35.67A10.34,10.34,0,1,1,72.44,46,10.33,10.33,0,0,1,62.09,35.67Z"/><path class="cls-7" d="M28.94,28.18c-.07.05-.1.11-.16.16-6.32.91-10.35,6.61-9.28,13.09,1.18,7.08,8.44,11.29,15.26,9.6,6.59-1.62,10.65-8.76,9.29-15.3S35.14,23.8,28.94,28.18Zm4.54,20.26C21.63,50.74,18,33.59,28.78,30.16a1.26,1.26,0,0,0,1.41.19C42.33,25,45.77,46.05,33.48,48.44Z"/><path class="cls-7" d="M38.23,42.59q-3.4-4.62-6.8-9.25a1.06,1.06,0,0,0-1.9.24,17,17,0,0,0-1.11,5.73,1.18,1.18,0,0,0-.58,2.28l.73.21a17.4,17.4,0,0,0,.66,3,.72.72,0,0,0,1.4-.36,16.26,16.26,0,0,1-.34-2.15c2.22.66,4.45,1.31,6.69,1.9C37.82,44.43,38.83,43.4,38.23,42.59Zm-7.37-6.5,3.61,5-4.24-1.28A16.17,16.17,0,0,1,30.86,36.09Z"/></svg>