<svg id="Layer_1" data-name="Layer 1" xmlns="http://www.w3.org/2000/svg" viewBox="0 0 100 100"><defs><style>.cls-1{fill:#f7c79b;}.cls-2{fill:#f7ddc6;}.cls-3{fill:#fcb918;}.cls-4{fill:#47b3e6;}.cls-5{fill:#6dd9a8;}</style></defs><rect class="cls-1" x="8.03" y="41.93" width="84.76" height="44.48" rx="1.86"/><path class="cls-2" d="M70.62,86.4H30.21a1.66,1.66,0,0,1-1.58-1.72V32.76A1.66,1.66,0,0,1,30.21,31l20.2-7.66L70.62,31a1.66,1.66,0,0,1,1.58,1.72V84.68A1.66,1.66,0,0,1,70.62,86.4Z"/><path class="cls-3" d="M41.15,86.4V74c0-5.39,4-9.79,8.85-9.79h0c4.87,0,8.85,4.4,8.85,9.79V86.4"/><path class="cls-4" d="M41.93,39.91a2,2,0,0,0-4,0v4a2,2,0,0,0,4,0Z"/><path class="cls-4" d="M52,39.91a2,2,0,0,0-4,0v4a2,2,0,0,0,4,0Z"/><path class="cls-4" d="M62.11,39.91a2,2,0,0,0-4,0v4a2,2,0,0,0,4,0Z"/><path class="cls-4" d="M39.91,52a2,2,0,0,0-2,2v4a2,2,0,0,0,4,0V54A2,2,0,0,0,39.91,52Z"/><path class="cls-4" d="M50,52a2,2,0,0,0-2,2v4a2,2,0,0,0,4,0V54A2,2,0,0,0,50,52Z"/><path class="cls-4" d="M60.09,52a2,2,0,0,0-2,2v4a2,2,0,0,0,4,0V54A2,2,0,0,0,60.09,52Z"/><path class="cls-4" d="M80.27,60.09a2,2,0,0,0,2-2V54a2,2,0,0,0-4,0v4A2,2,0,0,0,80.27,60.09Z"/><path class="cls-4" d="M21.75,54a2,2,0,0,0-4,0v4a2,2,0,0,0,4,0Z"/><path class="cls-4" d="M78.25,74.22a2,2,0,0,0,4,0v-4a2,2,0,1,0-4,0Z"/><path class="cls-4" d="M19.73,68.16a2,2,0,0,0-2,2v4a2,2,0,0,0,4,0v-4A2,2,0,0,0,19.73,68.16Z"/><path class="cls-5" d="M82.29,90.36H17.71a2,2,0,1,0,0,4H82.29a2,2,0,1,0,0-4Z"/><path class="cls-5" d="M50.91,17.71h11.2a2,2,0,0,0,1.8-2.92l-1.56-3.13,1.56-3.14a2,2,0,0,0-.09-2,2,2,0,0,0-1.71-1H50a2,2,0,0,0-2,2V22.31L25.14,29.92a2,2,0,0,0,1.28,3.83L50,25.89l23.58,7.86a2.05,2.05,0,0,0,.64.11,2,2,0,0,0,.64-3.94L52,22.31V9.64"/><path class="cls-3" d="M52,17.71H62.11a2,2,0,0,0,1.8-2.92l-1.56-3.13,1.56-3.14a2,2,0,0,0-.09-2,2,2,0,0,0-1.71-1H52"/></svg>