<svg id="Layer_1" data-name="Layer 1" xmlns="http://www.w3.org/2000/svg" viewBox="0 0 100 100"><defs><style>.cls-1{fill:#47b3e6;}.cls-2{fill:#fff;}</style></defs><circle class="cls-1" cx="50.74" cy="67.67" r="9.59"/><polygon class="cls-1" points="54.44 76.43 41.14 67.67 39.67 41.54 58.21 61.67 54.44 76.43"/><circle class="cls-2" cx="50.74" cy="67.67" r="5.58"/><path class="cls-1" d="M88.24,87.76H11.76A1.73,1.73,0,0,1,10.34,87a48.38,48.38,0,1,1,88-27.69A48,48,0,0,1,89.66,87,1.73,1.73,0,0,1,88.24,87.76ZM12.68,84.28H87.32a44.47,44.47,0,0,0,7.58-25,44.9,44.9,0,0,0-89.8,0A44.47,44.47,0,0,0,12.68,84.28Z"/><path class="cls-1" d="M50,33.31a1.74,1.74,0,0,1-1.74-1.74V20.09a1.74,1.74,0,0,1,3.48,0V31.57A1.74,1.74,0,0,1,50,33.31Z"/><path class="cls-1" d="M66,38.33a1.68,1.68,0,0,1-1.09-.39,1.73,1.73,0,0,1-.25-2.45l7.25-8.89a1.74,1.74,0,1,1,2.69,2.2l-7.25,8.89A1.73,1.73,0,0,1,66,38.33Z"/><path class="cls-1" d="M75.77,51.62a1.75,1.75,0,0,1-.45-3.43l11.1-2.93a1.74,1.74,0,1,1,.89,3.36l-11.1,2.94A1.61,1.61,0,0,1,75.77,51.62Z"/><path class="cls-1" d="M86.62,73.73A1.64,1.64,0,0,1,86,73.6L75.35,69.25A1.74,1.74,0,1,1,76.67,66l10.62,4.35a1.74,1.74,0,0,1-.67,3.35Z"/><path class="cls-1" d="M33.7,38.62A1.76,1.76,0,0,1,32.39,38L24.82,29.4a1.74,1.74,0,1,1,2.61-2.29L35,35.73a1.75,1.75,0,0,1-1.31,2.89Z"/><path class="cls-1" d="M23.61,52.38a1.72,1.72,0,0,1-.39,0L12,49.76a1.74,1.74,0,1,1,.78-3.39L24,49a1.74,1.74,0,0,1-.39,3.43Z"/><path class="cls-1" d="M12.92,73a1.74,1.74,0,0,1-.44-3.42l11.09-2.94A1.74,1.74,0,1,1,24.46,70L13.37,73A1.74,1.74,0,0,1,12.92,73Z"/><rect class="cls-1" x="3.39" y="83.28" width="93.22" height="5.77" rx="1.66"/></svg>