<svg id="Layer_1" data-name="Layer 1" xmlns="http://www.w3.org/2000/svg" viewBox="0 0 32 32"><defs><style>.cls-1{fill:#0693e3}</style></defs>
<path class="cls-1" d="M5.82,4.86A2.72,2.72,0,1,1,3.1,7.58,2.72,2.72,0,0,1,5.82,4.86m0-.71A3.43,3.43,0,1,0,9.25,7.58,3.43,3.43,0,0,0,5.82,4.15Z" stroke="#47b3e6" stroke-width="2"/>
<path class="cls-1" d="M8.9,15.21a3.12,3.12,0,0,0-6.24,0v8.63a.35.35,0,0,1-.35.35A.34.34,0,0,1,2,23.84V15.21a3.82,3.82,0,0,1,7.52-1,3.39,3.39,0,0,1,.11.71l-.69.28Z" stroke="#47b3e6" stroke-width="2"/>
<path class="cls-1" d="M9.6,16.77V18a.35.35,0,0,1-.35.35A.35.35,0,0,1,8.9,18v-1Z" stroke="#47b3e6" stroke-width="2"/>
<path class="cls-1" d="M14.41,14.82a1.41,1.41,0,0,1-.76.74c-.51.28-2.52,1.34-4.05,2l-.7.27A3.3,3.3,0,0,1,8,18c-1,0-2.84-1.75-3.2-2.1a.34.34,0,0,1,0-.49.35.35,0,0,1,.5,0c.83.79,2.22,1.9,2.72,1.9a3.21,3.21,0,0,0,.87-.24l.7-.29c1.17-.51,2.7-1.28,3.75-1.84a.69.69,0,0,0,.41-.39.67.67,0,0,0,0-.52.69.69,0,0,0-.9-.38L9.59,15l-.69.28-.71.29a.36.36,0,0,1-.46-.2.35.35,0,0,1,.2-.45l.89-.36.66-.27L12.6,13a1.39,1.39,0,0,1,1.81.76A1.42,1.42,0,0,1,14.41,14.82Z" stroke="#47b3e6" stroke-width="2"/>
<path class="cls-1" d="M13.85,13.89a.35.35,0,0,1-.23-.09.36.36,0,0,1,0-.49l4.32-5.1a.35.35,0,0,1,.49-.05.36.36,0,0,1,.05.5l-4.32,5.1A.37.37,0,0,1,13.85,13.89Z" stroke="#47b3e6" stroke-width="2"/>
<path class="cls-1" d="M28.6,17.59H22.74a.38.38,0,0,1,0-.75H28.6a1.05,1.05,0,0,0,1.07-1V3.87a1.05,1.05,0,0,0-1.07-1H5.23a1.05,1.05,0,0,0-1.07,1,.38.38,0,0,1-.38.37.37.37,0,0,1-.37-.37A1.8,1.8,0,0,1,5.23,2.09H28.6a1.81,1.81,0,0,1,1.82,1.78V15.81A1.81,1.81,0,0,1,28.6,17.59Z" stroke="#47b3e6" stroke-width="2"/>
<path class="cls-1" d="M16.91,23.28a3.56,3.56,0,1,1,3.56-3.55A3.55,3.55,0,0,1,16.91,23.28Zm0-6.36a2.81,2.81,0,1,0,2.81,2.81A2.81,2.81,0,0,0,16.91,16.92Z" stroke="#47b3e6" stroke-width="2"/>
<path class="cls-1" d="M22.12,29.91a.37.37,0,0,1-.37-.37,4.84,4.84,0,1,0-9.67,0,.38.38,0,0,1-.75,0,5.59,5.59,0,1,1,11.17,0A.38.38,0,0,1,22.12,29.91Z" stroke="#47b3e6" stroke-width="2"/>
<path class="cls-1" d="M9.43,24.76a2.85,2.85,0,1,1,2.85-2.85A2.84,2.84,0,0,1,9.43,24.76Zm0-4.94a2.1,2.1,0,1,0,2.1,2.09A2.1,2.1,0,0,0,9.43,19.82Z" stroke="#47b3e6" stroke-width="2"/>
<path class="cls-1" d="M5.39,29.91A.38.38,0,0,1,5,29.54a4.43,4.43,0,0,1,6.9-3.67.38.38,0,0,1,.1.52.37.37,0,0,1-.52.1,3.68,3.68,0,0,0-5.73,3.05A.38.38,0,0,1,5.39,29.91Z" stroke="#47b3e6" stroke-width="2"/>
<path class="cls-1" d="M24.39,24.76a2.85,2.85,0,1,1,2.85-2.85A2.84,2.84,0,0,1,24.39,24.76Zm0-4.94a2.1,2.1,0,1,0,2.1,2.09A2.1,2.1,0,0,0,24.39,19.82Z" stroke="#47b3e6" stroke-width="2"/>
<path class="cls-1" d="M28.44,29.91a.38.38,0,0,1-.38-.37,3.68,3.68,0,0,0-5.72-3.05.37.37,0,0,1-.52-.1.38.38,0,0,1,.1-.52,4.43,4.43,0,0,1,6.89,3.67A.37.37,0,0,1,28.44,29.91Z" stroke="#47b3e6" stroke-width="2"/></svg>