<svg id="Layer_1" data-name="Layer 1" xmlns="http://www.w3.org/2000/svg" viewBox="0 0 100 100"><defs><style>.cls-1{fill:#47b3e6;}.cls-2{fill:#49bb88;}.cls-3{fill:#fcb918;}</style></defs><path class="cls-1" d="M55.73,70.63c-.54.24-1.07.5-1.58.77l-.41.22a6.66,6.66,0,0,1-6.17,0l-.41-.22a22.57,22.57,0,0,0-10.62-2.66H12a1.18,1.18,0,0,1-1.17-1.18V20.71A1.18,1.18,0,0,1,12,19.54h2.34V61.71a3.49,3.49,0,0,0,1,2.48,3.53,3.53,0,0,0,2.49,1H40.11A16.46,16.46,0,0,1,50,68.5l.08,0,.1.07.11,0,.09,0a.91.91,0,0,0,.65,0l.09,0,.11,0,.1-.07.08,0a15.68,15.68,0,0,1,3.34-1.93c-.14-.63-.55-2.31-.55-2.31a18.4,18.4,0,0,0-2.32,1.13V16.77a11.6,11.6,0,0,1,7.9-3.09H83.45a1.18,1.18,0,0,1,1.18,1.17V44.39A7.2,7.2,0,0,1,87,45.5v-26h2.34a1.17,1.17,0,0,1,1.17,1.17V47.19a6.53,6.53,0,0,1,1.17.43,6.16,6.16,0,0,1,1.17.68V20.71a3.51,3.51,0,0,0-3.51-3.51H87V14.85a3.52,3.52,0,0,0-3.52-3.51H59.73a13.87,13.87,0,0,0-9.07,3.34,13.92,13.92,0,0,0-9.08-3.34H17.86a3.52,3.52,0,0,0-3.52,3.51V17.2H12a3.51,3.51,0,0,0-3.51,3.51V67.56A3.52,3.52,0,0,0,12,71.08H36.54a20.26,20.26,0,0,1,9.52,2.38l.41.23a8.94,8.94,0,0,0,8.37,0l.41-.23c.41-.22.83-.42,1.26-.61-.14-.37-.28-.74-.41-1.1S55.84,71,55.73,70.63Zm-39-55.78a1.17,1.17,0,0,1,1.17-1.17H41.58a11.6,11.6,0,0,1,7.9,3.09V65.39a18.87,18.87,0,0,0-9.37-2.51H17.86a1.17,1.17,0,0,1-1.17-1.17V14.85Z"/><path class="cls-2" d="M22.55,43H44a1.18,1.18,0,0,0,0-2.35H22.55a1.18,1.18,0,0,0,0,2.35Z"/><path class="cls-2" d="M22.55,50H44a1.17,1.17,0,0,0,0-2.34H22.55a1.17,1.17,0,0,0,0,2.34Z"/><path class="cls-2" d="M22.55,21.88H44a1.17,1.17,0,0,0,0-2.34H22.55a1.17,1.17,0,0,0,0,2.34Z"/><path class="cls-2" d="M22.55,35.94H41.17a1.18,1.18,0,0,0,0-2.35H22.55a1.18,1.18,0,0,0,0,2.35Z"/><path class="cls-2" d="M22.55,57H36.6a1.17,1.17,0,0,0,0-2.34h-14a1.17,1.17,0,0,0,0,2.34Z"/><path class="cls-2" d="M44,54.68H40.11a1.17,1.17,0,0,0,0,2.34H44a1.17,1.17,0,0,0,0-2.34Z"/><path class="cls-2" d="M44,26.57H36.6a1.17,1.17,0,1,0,0,2.34H44a1.17,1.17,0,1,0,0-2.34Z"/><path class="cls-2" d="M22.55,28.91H33.08a1.17,1.17,0,1,0,0-2.34H22.55a1.17,1.17,0,1,0,0,2.34Z"/><path class="cls-2" d="M63.73,33.61l-.19,0H57.28a1.18,1.18,0,0,0,0,2.35H63A7.4,7.4,0,0,1,63.73,33.61Z"/><path class="cls-2" d="M79.94,27.74a1.17,1.17,0,0,0-1.18-1.17H57.28a1.17,1.17,0,1,0,0,2.34H78.76A1.18,1.18,0,0,0,79.94,27.74Z"/><path class="cls-2" d="M62.89,40.62H57.28a1.18,1.18,0,0,0,0,2.35h5.61Z"/><path class="cls-2" d="M57.28,21.88h14a1.17,1.17,0,1,0,0-2.34h-14a1.17,1.17,0,0,0,0,2.34Z"/><path class="cls-2" d="M78.76,19.54H74.85a1.17,1.17,0,0,0,0,2.34h3.91a1.17,1.17,0,1,0,0-2.34Z"/><path class="cls-2" d="M56.11,48.82A1.17,1.17,0,0,0,57.28,50h5.61V47.65H57.28A1.18,1.18,0,0,0,56.11,48.82Z"/><path class="cls-2" d="M20.2,73.42H12a5.87,5.87,0,0,1-5.86-5.86V55.85a1.17,1.17,0,0,0-2.34,0V67.56a8.2,8.2,0,0,0,8.2,8.2h8.2a1.17,1.17,0,0,0,0-2.34Z"/><path class="cls-2" d="M70.57,9H83.45a5.81,5.81,0,0,1,3.24,1A1.17,1.17,0,0,0,88,8a8.23,8.23,0,0,0-4.54-1.37H70.57a1.18,1.18,0,0,0,0,2.35Z"/><circle class="cls-2" cx="24.74" cy="74.69" r="1.47"/><circle class="cls-2" cx="90.33" cy="11.19" r="1.47"/><path class="cls-3" d="M92.23,82.79H91.9a39.09,39.09,0,0,0,1.48-12.08V54a4.08,4.08,0,0,0-6-3.6,4.11,4.11,0,0,0-3.89-2.79,4,4,0,0,0-2.36.76,4.1,4.1,0,0,0-3.49-2,4,4,0,0,0-1.76.41V37.09a4.73,4.73,0,0,0-4.72-4.72,4.67,4.67,0,0,0-4.65,4.72V65.44a11.27,11.27,0,0,1-1-1.78L64.3,60.75a1.06,1.06,0,0,0-.11-.21l-.57-.87a5.77,5.77,0,0,0-6.38-2.41,1.16,1.16,0,0,0-.83,1.4l1.5,6.26.91,3.81A34.53,34.53,0,0,0,64.51,80l1.87,2.8H65.29A1.16,1.16,0,0,0,64.13,84v3.65a1.17,1.17,0,1,0,2.33,0V85.14H91.11v7a1.12,1.12,0,0,0,1.12,1.17,1.17,1.17,0,0,0,1.17-1.17V84A1.17,1.17,0,0,0,92.23,82.79Zm-23,0h0l-2.76-4.13a32.26,32.26,0,0,1-5.35-10.5c-.06-.26-.35-1.46-.91-3.79L59,59.4A3.42,3.42,0,0,1,61.66,61l.51.78,1.11,2.8a13.8,13.8,0,0,0,1.45,2.62,2.2,2.2,0,0,0,4-1.24V37.09a2.38,2.38,0,0,1,4.75,0V54.38a1.17,1.17,0,1,0,2.34,0V50.49a1.76,1.76,0,0,1,3.51,0v5.1a1.18,1.18,0,0,0,2.35,0V51.7a1.76,1.76,0,0,1,3.51,0v2.17s0,.08,0,.12v1.86s0,0,0,.06v.45a1.17,1.17,0,1,0,2.33,0V53.93a1.75,1.75,0,0,1,1.74-1.69A1.77,1.77,0,0,1,91.07,54V70.77a37.3,37.3,0,0,1-1.64,12Z"/><path class="cls-1" d="M69.27,86.8a1.75,1.75,0,1,0,2.43.43A1.75,1.75,0,0,0,69.27,86.8Z"/></svg>