<svg id="Layer_1" data-name="Layer 1" xmlns="http://www.w3.org/2000/svg" viewBox="0 0 100 100"><defs><style>.cls-1{fill:#6dd9a8;}.cls-2{fill:#49bb88;}.cls-3{fill:#f2f2f2;}.cls-4{fill:#e6e6e6;}.cls-5{fill:gray;}.cls-6{fill:#47b3e6;}.cls-7{fill:#f7c79b;}.cls-8{fill:#fff;}</style></defs><path class="cls-1" d="M52.17,19.85v55s-6-3.54-12.24-3.54H14.09c-3.72,0-4.08-2.62-4.08-6.59V20c0-2.39,1.92-3.73,6.29-3.73s24.19.15,27.08.15S52.17,19.26,52.17,19.85Z"/><path class="cls-2" d="M51.59,19.85v55s6-3.54,12.24-3.54H89.67c3.71,0,4.08-2.62,4.08-6.59V20c0-2.39-1.92-3.73-6.29-3.73s-24.19.15-27.08.15S51.59,19.26,51.59,19.85Z"/><path class="cls-3" d="M51.85,12.74V69.49s-5.41-3.64-11.08-3.64H17.38c-3.36,0-3.69-2.71-3.69-6.8V12.92c0-2.46,1.74-3.85,5.7-3.85s21.88.16,24.51.16S51.85,12.12,51.85,12.74Z"/><path class="cls-4" d="M51.85,12.74V69.49s5.41-3.64,11.09-3.64H86.32c3.36,0,3.69-2.71,3.69-6.8V12.92c0-2.46-1.73-3.85-5.69-3.85s-21.89.16-24.51.16S51.85,12.12,51.85,12.74Z"/><path class="cls-5" d="M22.62,42.47H45.19a1.24,1.24,0,0,0,0-2.47H22.62a1.24,1.24,0,0,0,0,2.47Z"/><path class="cls-5" d="M22.62,49.85H45.19a1.23,1.23,0,1,0,0-2.46H22.62a1.23,1.23,0,1,0,0,2.46Z"/><path class="cls-5" d="M22.62,20.31H45.19a1.23,1.23,0,0,0,0-2.46H22.62a1.23,1.23,0,0,0,0,2.46Z"/><path class="cls-5" d="M22.62,35.08H42.18a1.23,1.23,0,0,0,0-2.46H22.62a1.23,1.23,0,0,0,0,2.46Z"/><path class="cls-5" d="M22.62,57.24H37.38a1.23,1.23,0,1,0,0-2.46H22.62a1.23,1.23,0,0,0,0,2.46Z"/><path class="cls-5" d="M45.19,54.78H41.08a1.23,1.23,0,1,0,0,2.46h4.11a1.23,1.23,0,1,0,0-2.46Z"/><path class="cls-5" d="M45.19,25.23H37.38a1.23,1.23,0,0,0,0,2.46h7.81a1.23,1.23,0,1,0,0-2.46Z"/><path class="cls-5" d="M22.62,27.69H33.69a1.23,1.23,0,1,0,0-2.46H22.62a1.23,1.23,0,0,0,0,2.46Z"/><path class="cls-5" d="M59.64,42.47H82.22a1.24,1.24,0,0,0,0-2.47H59.64a1.24,1.24,0,0,0,0,2.47Z"/><path class="cls-5" d="M59.64,49.85H82.22a1.23,1.23,0,1,0,0-2.46H59.64a1.23,1.23,0,0,0,0,2.46Z"/><path class="cls-5" d="M59.64,20.31H82.22a1.23,1.23,0,1,0,0-2.46H59.64a1.23,1.23,0,0,0,0,2.46Z"/><path class="cls-5" d="M59.64,35.08H79.21a1.23,1.23,0,0,0,0-2.46H59.64a1.23,1.23,0,0,0,0,2.46Z"/><path class="cls-5" d="M59.64,57.24H74.41a1.23,1.23,0,1,0,0-2.46H59.64a1.23,1.23,0,0,0,0,2.46Z"/><path class="cls-5" d="M82.22,54.78H78.11a1.23,1.23,0,1,0,0,2.46h4.11a1.23,1.23,0,1,0,0-2.46Z"/><path class="cls-5" d="M82.22,25.23H74.41a1.23,1.23,0,0,0,0,2.46h7.81a1.23,1.23,0,1,0,0-2.46Z"/><path class="cls-5" d="M59.64,27.69H70.72a1.23,1.23,0,1,0,0-2.46H59.64a1.23,1.23,0,0,0,0,2.46Z"/><path class="cls-6" d="M20.15,74.47H11.53a6.16,6.16,0,0,1-6.15-6.15V56a1.23,1.23,0,0,0-2.46,0V68.32a8.62,8.62,0,0,0,8.61,8.61h8.62a1.23,1.23,0,0,0,0-2.46Z"/><path class="cls-6" d="M73.08,6.77H86.63a6.08,6.08,0,0,1,3.39,1,1.23,1.23,0,0,0,1.37-2A8.59,8.59,0,0,0,86.63,4.3H73.08a1.24,1.24,0,0,0,0,2.47Z"/><circle class="cls-6" cx="24.92" cy="75.81" r="1.54"/><circle class="cls-6" cx="93.85" cy="9.07" r="1.54"/><path class="cls-7" d="M95.85,84.32H95.5a40.9,40.9,0,0,0,1.56-12.7V54.05a4.3,4.3,0,0,0-4.3-4.3,4.37,4.37,0,0,0-2.06.52,4.3,4.3,0,0,0-6.56-2.14,4.32,4.32,0,0,0-3.67-2.06,4.26,4.26,0,0,0-1.85.42V36.29a5,5,0,0,0-5-4.95,4.9,4.9,0,0,0-4.89,4.95v29.8a12.19,12.19,0,0,1-1.07-1.87L66.5,61.16a.94.94,0,0,0-.12-.22l-.6-.92a6.08,6.08,0,0,0-6.71-2.54A1.24,1.24,0,0,0,58.2,59l1.58,6.58c.59,2.46.89,3.72,1,4a36.08,36.08,0,0,0,6,11.84l2,2.94H67.54a1.22,1.22,0,0,0-1.23,1.23v3.84a1.23,1.23,0,1,0,2.46,0V86.78h25.9v7.4a1.19,1.19,0,0,0,1.18,1.23,1.23,1.23,0,0,0,1.23-1.23V85.55A1.23,1.23,0,0,0,95.85,84.32Z"/><rect class="cls-6" x="65.71" y="84.32" width="31.37" height="11.38" rx="1.04"/><path class="cls-8" d="M71.72,88.53a1.84,1.84,0,1,0,2.56.45A1.83,1.83,0,0,0,71.72,88.53Z"/></svg>