<svg id="Layer_1" data-name="Layer 1" xmlns="http://www.w3.org/2000/svg" viewBox="0 0 100 100"><defs><style>.cls-1{fill:#47b3e6;}</style></defs><path class="cls-1" d="M57.49,71.68c-.57.25-1.12.52-1.67.81l-.43.23a7,7,0,0,1-6.47,0l-.43-.23a23.75,23.75,0,0,0-11.17-2.8H11.53a1.24,1.24,0,0,1-1.23-1.23V19.22A1.24,1.24,0,0,1,11.53,18H14V62.3a3.72,3.72,0,0,0,3.7,3.7H41.07a17.39,17.39,0,0,1,10.35,3.45l.08,0,.11.07.11,0,.09,0a1.07,1.07,0,0,0,.35.06,1,1,0,0,0,.34-.06l.1,0,.1,0,.11-.07.08,0a17.39,17.39,0,0,1,3.52-2c-.15-.66-.58-2.42-.58-2.42a20.36,20.36,0,0,0-2.44,1.19V15.08a12.16,12.16,0,0,1,8.31-3.25H86.63a1.24,1.24,0,0,1,1.23,1.23V44.11a7.42,7.42,0,0,1,2.46,1.16V18h2.46A1.23,1.23,0,0,1,94,19.22V47.05a7.18,7.18,0,0,1,1.23.44,6.88,6.88,0,0,1,1.23.73v-29a3.69,3.69,0,0,0-3.69-3.69H90.32V13.06a3.7,3.7,0,0,0-3.69-3.69H61.7a14.59,14.59,0,0,0-9.54,3.51,14.63,14.63,0,0,0-9.54-3.51H17.69A3.7,3.7,0,0,0,14,13.06v2.47H11.53a3.69,3.69,0,0,0-3.69,3.69V68.46a3.69,3.69,0,0,0,3.69,3.69H37.32a21.32,21.32,0,0,1,10,2.51l.43.23a9.35,9.35,0,0,0,8.8,0l.42-.23c.44-.24.88-.45,1.33-.65-.15-.39-.3-.77-.44-1.16S57.6,72.07,57.49,71.68Zm-41-58.62a1.24,1.24,0,0,1,1.23-1.23H42.62a12.19,12.19,0,0,1,8.31,3.25v51.1a19.81,19.81,0,0,0-9.86-2.64H17.69a1.24,1.24,0,0,1-1.23-1.24V13.06Z"/><path class="cls-1" d="M22.62,42.61H45.19a1.23,1.23,0,0,0,0-2.46H22.62a1.23,1.23,0,0,0,0,2.46Z"/><path class="cls-1" d="M22.62,50H45.19a1.23,1.23,0,1,0,0-2.46H22.62a1.23,1.23,0,1,0,0,2.46Z"/><path class="cls-1" d="M22.62,20.45H45.19a1.23,1.23,0,1,0,0-2.46H22.62a1.23,1.23,0,0,0,0,2.46Z"/><path class="cls-1" d="M22.62,35.22H42.18a1.23,1.23,0,0,0,0-2.46H22.62a1.23,1.23,0,0,0,0,2.46Z"/><path class="cls-1" d="M22.62,57.38H37.38a1.23,1.23,0,1,0,0-2.46H22.62a1.23,1.23,0,0,0,0,2.46Z"/><path class="cls-1" d="M45.19,54.92H41.08a1.23,1.23,0,1,0,0,2.46h4.11a1.23,1.23,0,1,0,0-2.46Z"/><path class="cls-1" d="M45.19,25.37H37.38a1.24,1.24,0,0,0,0,2.47h7.81a1.24,1.24,0,0,0,0-2.47Z"/><path class="cls-1" d="M22.62,27.84H33.69a1.24,1.24,0,0,0,0-2.47H22.62a1.24,1.24,0,0,0,0,2.47Z"/><path class="cls-1" d="M65.9,32.78l-.2,0H59.12a1.23,1.23,0,0,0,0,2.46h6A7.76,7.76,0,0,1,65.9,32.78Z"/><path class="cls-1" d="M82.93,26.6a1.23,1.23,0,0,0-1.23-1.23H59.12a1.24,1.24,0,0,0,0,2.47H81.7A1.24,1.24,0,0,0,82.93,26.6Z"/><path class="cls-1" d="M65,40.15H59.12a1.23,1.23,0,0,0,0,2.46H65Z"/><path class="cls-1" d="M59.12,20.45H73.89a1.23,1.23,0,1,0,0-2.46H59.12a1.23,1.23,0,1,0,0,2.46Z"/><path class="cls-1" d="M81.7,18H77.58a1.23,1.23,0,0,0,0,2.46H81.7a1.23,1.23,0,1,0,0-2.46Z"/><path class="cls-1" d="M57.89,48.76A1.23,1.23,0,0,0,59.12,50H65V47.53H59.12A1.24,1.24,0,0,0,57.89,48.76Z"/><path class="cls-1" d="M20.15,74.61H11.53a6.16,6.16,0,0,1-6.15-6.15V56.15a1.23,1.23,0,0,0-2.46,0V68.46a8.63,8.63,0,0,0,8.61,8.62h8.62a1.24,1.24,0,0,0,0-2.47Z"/><path class="cls-1" d="M73.08,6.91H86.63a6.08,6.08,0,0,1,3.39,1,1.23,1.23,0,0,0,1.37-2,8.58,8.58,0,0,0-4.76-1.43H73.08a1.23,1.23,0,0,0,0,2.46Z"/><circle class="cls-1" cx="24.92" cy="75.95" r="1.54"/><circle class="cls-1" cx="93.85" cy="9.21" r="1.54"/><path class="cls-1" d="M95.85,84.46H95.5a40.87,40.87,0,0,0,1.56-12.7V54.19a4.31,4.31,0,0,0-4.3-4.3,4.37,4.37,0,0,0-2.06.52,4.29,4.29,0,0,0-6.56-2.13,4.31,4.31,0,0,0-3.67-2.07,4.4,4.4,0,0,0-1.85.42V36.43a5,5,0,0,0-5-4.95,4.9,4.9,0,0,0-4.89,4.95v29.8a12.19,12.19,0,0,1-1.07-1.87L66.5,61.3a.94.94,0,0,0-.12-.22l-.6-.92a6.08,6.08,0,0,0-6.71-2.54,1.24,1.24,0,0,0-.87,1.48l1.58,6.58c.59,2.46.89,3.73,1,4a36,36,0,0,0,6,11.84l2,2.94H67.54a1.23,1.23,0,0,0-1.23,1.23v3.84a1.23,1.23,0,1,0,2.46,0V86.92h25.9v7.4a1.18,1.18,0,0,0,1.18,1.23,1.22,1.22,0,0,0,1.23-1.23V85.69A1.24,1.24,0,0,0,95.85,84.46Zm-24.2,0h0l-2.9-4.34a33.9,33.9,0,0,1-5.61-11c-.07-.27-.37-1.53-1-4l-1.25-5.23a3.6,3.6,0,0,1,2.8,1.63l.54.82,1.17,2.94A14.39,14.39,0,0,0,67,68a2.31,2.31,0,0,0,4.22-1.31V36.43a2.5,2.5,0,0,1,5,0V54.61a1.23,1.23,0,0,0,2.46,0V50.52a1.85,1.85,0,1,1,3.7,0v5.36a1.23,1.23,0,1,0,2.46,0V51.79a1.85,1.85,0,1,1,3.69,0v2.28s0,.08,0,.12v2s0,0,0,.06v.47a1.23,1.23,0,1,0,2.45,0V54.13a1.84,1.84,0,0,1,1.83-1.78,1.87,1.87,0,0,1,1.87,1.84V71.83A39.17,39.17,0,0,1,92.9,84.46Z"/><path class="cls-1" d="M71.72,88.68a1.84,1.84,0,1,0,2.56.45A1.83,1.83,0,0,0,71.72,88.68Z"/></svg>