<svg id="Layer_1" data-name="Layer 1" xmlns="http://www.w3.org/2000/svg" viewBox="0 0 100 100"><defs><style>.cls-1{fill:#47b3e6;}</style></defs><path class="cls-1" d="M29.14,35.55c-.42-2.31-.94-4.56-1.22-6.85a17.57,17.57,0,0,1,.79-8.62,10.25,10.25,0,0,1,3.72-4.84,1.7,1.7,0,0,0,.62-.66c1.46-4,4.56-6,8.5-6.88,3.48-.81,7-.52,10.48-.23,3.28.27,6.54.72,9.81,1a11.92,11.92,0,0,0,6.41-1.07,1.32,1.32,0,0,1,2.06.76,8.73,8.73,0,0,1-.56,9c3.81,5.91,1.07,18.37,1.11,18.37s-1.65,10.15-2.76,12.8a25.43,25.43,0,0,1-4.78,8.14,2,2,0,0,0-.21.35c.23.11.42.21.61.29,5.19,2.14,7.75,6.21,8.44,11.61.09.72.3,1,1,1.17,1.59.33,3.18.7,4.74,1.15a11.07,11.07,0,0,1,8,9.73c.45,4.45,1,8.9,1.44,13.36,0,.34.05.69.07,1a1.3,1.3,0,1,1-2.59.25c-.17-1.18-.27-2.36-.4-3.55-.38-3.64-.78-7.29-1.15-10.93A8.43,8.43,0,0,0,77,73.55c-1.66-.44-3.34-.82-5-1.2a1,1,0,0,0-.82.16c-2.86,2.87-6.47,4.2-10.3,5.1a15.36,15.36,0,0,1-2.21.42c-.66.06-.81.33-.8,1,0,3.67,0,7.33,0,11a2.13,2.13,0,0,1-.58,1.46c-.83.71-2,0-2-1.14,0-1.85,0-3.7,0-5.55V78.59H44.73v.93c0,3.51,0,7,0,10.53a2.08,2.08,0,0,1-.65,1.43,1.25,1.25,0,0,1-1.94-1.16c0-1.57,0-3.14,0-4.7v-7.4c-1.15-.24-2.28-.45-3.4-.72-3.66-.88-7.11-2.21-9.85-5a1,1,0,0,0-.82-.22c-1.77.4-3.54.78-5.29,1.27a8.46,8.46,0,0,0-6,7.3c-.49,4.76-1,9.53-1.52,14.29-.1.93-.66,1.5-1.41,1.46S12.46,96,12.56,95c.39-3.9.81-7.79,1.22-11.69.13-1.18.2-2.38.44-3.54a10.83,10.83,0,0,1,8.35-8.81c1.51-.41,3.05-.72,4.56-1.14a1,1,0,0,0,.63-.71c.66-5.82,3.48-10,9-12.18-1.12-1.67-2.25-3.25-3.24-4.9A21.22,21.22,0,0,1,32,48.69S29.5,37.42,29.14,35.55ZM61.23,25.9a62.16,62.16,0,0,1-22.47,0c-.1.69-.2,1.25-.24,1.8a11.46,11.46,0,0,1-4,8.42,4.65,4.65,0,0,0-1.71,4.64c1,8.84,5.28,15.46,13.16,19.67a8.16,8.16,0,0,0,8,0A23.66,23.66,0,0,0,66.88,42.66c.24-1.38.68-2.92.3-4.17s-1.67-2.14-2.56-3.19c-.08-.09-.17-.18-.25-.28a10.52,10.52,0,0,1-2.71-6C61.53,28,61.38,27,61.23,25.9ZM31.84,35c2.19-1.85,3.7-3.84,3.92-6.6.11-1.34.34-2.67.51-4,.16-1.14.77-1.6,1.88-1.37a56.75,56.75,0,0,0,23.68,0c1.11-.24,1.73.21,1.88,1.35s.33,2.17.4,3.26A9.49,9.49,0,0,0,68,34.87c.05,0,.12-.08.13-.13A26.93,26.93,0,0,0,69.5,24a9.38,9.38,0,0,0-2-5.28c-1.17-1.42-1.16-1.48,0-2.93a5.68,5.68,0,0,0,.87-5.53c-3.48,1.27-6.93.88-10.39.5-3.64-.4-7.3-.7-11-.93a15.52,15.52,0,0,0-7,1.08,7.09,7.09,0,0,0-4.57,5A1.91,1.91,0,0,1,34.58,17a8.13,8.13,0,0,0-3.81,5.46,18.85,18.85,0,0,0-.06,7.37C31,31.53,31.44,33.21,31.84,35Zm11,26.67c-.16,2-.32,3.78-.44,5.58a1.57,1.57,0,0,0,.32.85,28.08,28.08,0,0,0,6.6,7.15.87.87,0,0,0,1.28,0,27.91,27.91,0,0,0,6.6-7.15,1.66,1.66,0,0,0,.32-.94c-.11-1.77-.27-3.55-.43-5.49C52.36,64.86,47.65,64.87,42.87,61.7Zm2.74,14.09A33.05,33.05,0,0,1,40.16,69a2.77,2.77,0,0,1-.41-1.4c.14-2.25.35-4.49.55-6.74a1.45,1.45,0,0,0-2-1.6,10.92,10.92,0,0,0-7.94,9.89,2.16,2.16,0,0,0,.85,2.1C35.4,74.67,40.46,75.36,45.61,75.79Zm8.65,0a4.09,4.09,0,0,0,.72,0c2.4-.42,4.82-.73,7.18-1.3A14.24,14.24,0,0,0,69,71a2,2,0,0,0,.62-1.25,10.93,10.93,0,0,0-7.81-10.46c-1.34-.43-2.22.3-2.08,1.71A20.71,20.71,0,0,0,60,64.42c.89,3.33-.63,5.79-2.69,8.1C56.36,73.61,55.35,74.66,54.26,75.84Z"/><path class="cls-1" d="M53.4,58.51H46.68a3,3,0,0,1-3-3v-.12a3,3,0,0,1,3-3H53.4a3,3,0,0,1,3,3v.12A3,3,0,0,1,53.4,58.51Zm-6.72-4.06a1,1,0,0,0-1,1v.12a1,1,0,0,0,1,1H53.4a1,1,0,0,0,1-1v-.12a1,1,0,0,0-1-1Z"/><path class="cls-1" d="M27.29,50.59A4.56,4.56,0,0,1,22.87,47l-1.41-7A4.53,4.53,0,0,1,25,34.69l.68-.14A4.53,4.53,0,0,1,31,38.08l1.41,7a4.53,4.53,0,0,1-3.52,5.32h0l-.68.14A4.58,4.58,0,0,1,27.29,50.59Zm-.72-14.13a2.73,2.73,0,0,0-.5,0l-.69.14a2.52,2.52,0,0,0-2,3l1.41,7a2.56,2.56,0,0,0,1.08,1.59,2.5,2.5,0,0,0,1.88.37l.69-.14a2.52,2.52,0,0,0,2-3l-1.41-7a2.56,2.56,0,0,0-2.46-2Z"/><path class="cls-1" d="M72.68,50.66a4.45,4.45,0,0,1-1.25-.18l-1-.28a4.51,4.51,0,0,1-3.08-5.58l2-6.83A4.52,4.52,0,0,1,75,34.71l1,.27A4.53,4.53,0,0,1,79,40.57l-2,6.82a4.46,4.46,0,0,1-2.15,2.7A4.58,4.58,0,0,1,72.68,50.66Zm-.7-2.1a2.54,2.54,0,0,0,1.91-.22,2.49,2.49,0,0,0,1.2-1.5l2-6.83a2.52,2.52,0,0,0-1.72-3.11l-.94-.27a2.52,2.52,0,0,0-3.11,1.72l-2,6.83A2.51,2.51,0,0,0,71,48.28Z"/><path class="cls-1" d="M24.46,32.86a1,1,0,0,1-1-.88c-1-8.52,1.3-16.27,6.56-21.84A25.75,25.75,0,0,1,50.55,2.41,28.84,28.84,0,0,1,61,4.72a1,1,0,1,1-.84,1.81,26.94,26.94,0,0,0-9.71-2.12,23.74,23.74,0,0,0-18.94,7.1c-4.84,5.13-7,12.31-6,20.23a1,1,0,0,1-.88,1.11Z"/><path class="cls-1" d="M74.76,33.61a1.25,1.25,0,0,1-.32,0,1,1,0,0,1-.62-1.28,15.73,15.73,0,0,0-1.46-13.61,1,1,0,0,1,.26-1.39,1,1,0,0,1,1.39.26,17.55,17.55,0,0,1,1.7,15.4A1,1,0,0,1,74.76,33.61Z"/><path class="cls-1" d="M60.14,56.82a30,30,0,0,1-4.4-.35l.29-2c12.58,1.87,14.65-4.94,14.73-5.23l1.93.52C72.6,50.1,70.68,56.82,60.14,56.82Z"/></svg>