<svg id="Layer_1" data-name="Layer 1" xmlns="http://www.w3.org/2000/svg" viewBox="0 0 100 100"><defs><style>.cls-1{fill:#47b3e6;}.cls-2{fill:#49bb88;}.cls-3{fill:#fcb918;}.cls-4{fill:none;stroke:#49bb88;stroke-linecap:round;stroke-linejoin:round;stroke-width:2px;}</style></defs><path class="cls-1" d="M94.23,86.52c.63,0,1.21,0,1.79,0,3.23,0,3.06-.08,3,3.07a7.87,7.87,0,0,1-.24,1.94,6,6,0,0,1-6.12,4.59c-4.61.06-21.6,0-26.21,0a2.57,2.57,0,0,1-.55-.06.85.85,0,0,1-.75-.95,1.8,1.8,0,0,1,.67-1c.22-.17.63-.12,1-.12,4.42,0,21.23-.07,25.65,0,2.8,0,4.92-2.06,4.4-5.36h-.73c-7.86,0-28.1,0-36,0-.56,0-.79.1-.88.73a3.63,3.63,0,0,1-3.57,3c-3.3.06-6.59.06-9.89,0a3.66,3.66,0,0,1-3.63-3.26c-.07-.4-.25-.48-.61-.47H3.18A4.27,4.27,0,0,0,7.52,94c13-.06,39.92,0,53,0a4.07,4.07,0,0,1,1,.09.86.86,0,0,1,.7,1,2,2,0,0,1-.79.92c-.18.13-.5.08-.76.08H7.58a6.19,6.19,0,0,1-6-3.58,12.66,12.66,0,0,1-.61-2V87.22a1.61,1.61,0,0,1,1.56-.71c1,0,1.9,0,2.93,0m2.12,0H92.07m-47.76,2.2c.13,1.1.75,1.59,2,1.59,3,0,5.93,0,8.9,0a3.42,3.42,0,0,0,.9-.12,1.44,1.44,0,0,0,1.06-1.47Z"/><path class="cls-1" d="M68.43,20.27h-.2a5.55,5.55,0,0,1-2.31-.5H35.54a5.47,5.47,0,0,1-2.33.52H33a19.11,19.11,0,0,0-1.09,1.62H69.54C69.2,21.34,68.82,20.79,68.43,20.27Zm0,0h-.2a5.55,5.55,0,0,1-2.31-.5H35.54a5.47,5.47,0,0,1-2.33.52H33a19.11,19.11,0,0,0-1.09,1.62H69.54C69.2,21.34,68.82,20.79,68.43,20.27Zm0,0h-.2a5.55,5.55,0,0,1-2.31-.5H35.54a5.47,5.47,0,0,1-2.33.52H33a19.11,19.11,0,0,0-1.09,1.62H69.54C69.2,21.34,68.82,20.79,68.43,20.27Zm0,0h-.2a5.55,5.55,0,0,1-2.31-.5H35.54a5.47,5.47,0,0,1-2.33.52H33a19.11,19.11,0,0,0-1.09,1.62H69.54C69.2,21.34,68.82,20.79,68.43,20.27Zm21.24-.5h-13c.37.69.71,1.41,1,2.13h12a3.17,3.17,0,0,1,3.17,3.17V78.55a3.17,3.17,0,0,1-3.17,3.17H11.81a3.18,3.18,0,0,1-3.17-3.17V25.07a3.18,3.18,0,0,1,3.17-3.17H23.73c.31-.72.65-1.44,1-2.13H11.81a5.31,5.31,0,0,0-5.3,5.3V78.55a5.3,5.3,0,0,0,5.3,5.3H89.67a5.3,5.3,0,0,0,5.3-5.3V25.07A5.31,5.31,0,0,0,89.67,19.77Zm-21.24.5h-.2a5.55,5.55,0,0,1-2.31-.5H35.54a5.47,5.47,0,0,1-2.33.52H33a19.11,19.11,0,0,0-1.09,1.62H69.54C69.2,21.34,68.82,20.79,68.43,20.27Zm0,0h-.2a5.55,5.55,0,0,1-2.31-.5H35.54a5.47,5.47,0,0,1-2.33.52H33a19.11,19.11,0,0,0-1.09,1.62H69.54C69.2,21.34,68.82,20.79,68.43,20.27Zm0,0h-.2a5.55,5.55,0,0,1-2.31-.5H35.54a5.47,5.47,0,0,1-2.33.52H33a19.11,19.11,0,0,0-1.09,1.62H69.54C69.2,21.34,68.82,20.79,68.43,20.27Zm0,0h-.2a5.55,5.55,0,0,1-2.31-.5H35.54a5.47,5.47,0,0,1-2.33.52H33a19.11,19.11,0,0,0-1.09,1.62H69.54C69.2,21.34,68.82,20.79,68.43,20.27Zm0,0h-.2a5.55,5.55,0,0,1-2.31-.5H35.54a5.47,5.47,0,0,1-2.33.52H33a19.11,19.11,0,0,0-1.09,1.62H69.54C69.2,21.34,68.82,20.79,68.43,20.27Z"/><path class="cls-1" d="M71.29,25.35H30.14a19.75,19.75,0,0,0-.72,2.13H72A19.75,19.75,0,0,0,71.29,25.35Zm-54.52,0a5.31,5.31,0,0,0-5.3,5.3V44.58a13.82,13.82,0,0,1,2.13-6v-8a3.17,3.17,0,0,1,3.17-3.17H22c.14-.71.31-1.43.52-2.13ZM87.84,55.74V73a3.18,3.18,0,0,1-3.16,3.18H16.77A3.18,3.18,0,0,1,13.6,73V53.9A13.94,13.94,0,0,1,11.47,48V73a5.31,5.31,0,0,0,5.3,5.32H84.68A5.31,5.31,0,0,0,90,73V49.84A44,44,0,0,1,87.84,55.74ZM84.68,25.35H79c.2.7.37,1.41.52,2.13h5.21a3.17,3.17,0,0,1,3.16,3.17v7.66A13.76,13.76,0,0,1,90,44.6v-14A5.31,5.31,0,0,0,84.68,25.35Zm-13.39,0H30.14a19.75,19.75,0,0,0-.72,2.13H72A19.75,19.75,0,0,0,71.29,25.35Z"/><path class="cls-2" d="M88.38,48.78a1,1,0,0,0-.24-.22l-.2-.07a.63.63,0,0,0-.75.47,11.2,11.2,0,0,1-4.84,6.71.69.69,0,0,0-.22.23c-.21.39-.43.78-.67,1.17-1.83,3-4.58,6.11-8.18,6.11h-7.2a3.72,3.72,0,0,0-3.53-2.54H55.12a3.74,3.74,0,0,0-3.74,3.73v1a3.75,3.75,0,0,0,3.74,3.74h7.43a3.72,3.72,0,0,0,3.53-2.54h7.2c10.55,0,15-16.6,15.19-17.31A.71.71,0,0,0,88.38,48.78ZM73.28,65.31H65.59a.65.65,0,0,0-.64.53,2.45,2.45,0,0,1-2.4,2H55.12a2.45,2.45,0,0,1-2.44-2.45v-1a2.45,2.45,0,0,1,2.44-2.45h7.43a2.46,2.46,0,0,1,2.4,2,.65.65,0,0,0,.64.53h7.69c3.68,0,7.11-2.7,9.91-7.8a13.15,13.15,0,0,0,1.61-1.26C82.61,60,78.85,65.31,73.28,65.31Z"/><path class="cls-2" d="M25.37,33.72h-.28A11.06,11.06,0,0,0,23,34a11.45,11.45,0,0,0-1.28.33h0a12.51,12.51,0,0,0,3.43,24.41h.3a.65.65,0,0,0,.64-.65V34.37A.65.65,0,0,0,25.37,33.72Zm-.65,23.69A11.21,11.21,0,0,1,22,35.56l.09,0A11,11,0,0,1,24.72,35Z"/><path class="cls-3" d="M30.13,33.29a3.13,3.13,0,0,0-2-.9,1.27,1.27,0,0,0-.28,0h-.32a2.59,2.59,0,0,0-.73.17l-.17.06-.11,0a.91.91,0,0,0-.17.09,3,3,0,0,0-.9.73,1.55,1.55,0,0,0-.19.24s0,0,0,0-.13.22-.2.33a3.2,3.2,0,0,0-.32,1,3.25,3.25,0,0,0,0,.44v21.4a3,3,0,0,0,.35,1.44,3.09,3.09,0,0,0,.57.79,3.11,3.11,0,0,0,2.24.94,3.18,3.18,0,0,0,3.17-3.17V35.53A3.17,3.17,0,0,0,30.13,33.29Zm-.38,23.64a1.87,1.87,0,0,1-3.19,1.32,1.89,1.89,0,0,1-.34-.46,2,2,0,0,1-.21-.86V35.53a1.76,1.76,0,0,1,.21-.85,1.9,1.9,0,0,1,1.47-1h.19a1.83,1.83,0,0,1,1.33.55,1.8,1.8,0,0,1,.54,1.32Z"/><path class="cls-2" d="M79.76,34h0a11.7,11.7,0,0,0-1.26-.33,11.57,11.57,0,0,0-2.07-.25,2,2,0,0,0-.35,0l-.18,0h0a.62.62,0,0,0-.46.61V57.72a.64.64,0,0,0,.64.64h.32a12.33,12.33,0,0,0,5.1-1.29,9.79,9.79,0,0,0,1.22-.69,12.46,12.46,0,0,0,5.39-7.47c0-.12.05-.23.07-.35a12.3,12.3,0,0,0,.3-2.71A12.47,12.47,0,0,0,79.76,34ZM76.69,57V34.67a11.23,11.23,0,0,1,2.68.51h0l.2.07a11.19,11.19,0,0,1,7.54,10.59A11.21,11.21,0,0,1,76.69,57Z"/><path class="cls-3" d="M76.69,35.4c0-.1,0-.21,0-.31a3.14,3.14,0,0,0-.32-1l-.2-.34h0a3,3,0,0,0-.23-.3l0-.06a1.34,1.34,0,0,0-.21-.2l-.07-.07a2.27,2.27,0,0,0-.25-.18,3,3,0,0,0-.35-.22l-.36-.16h0a3.2,3.2,0,0,0-.77-.17,2.72,2.72,0,0,0-.57,0,3.21,3.21,0,0,0-2,.9,3.17,3.17,0,0,0-.92,2.24v21.4a3.18,3.18,0,0,0,3.17,3.17,3.08,3.08,0,0,0,2.23-.94,2.94,2.94,0,0,0,.58-.78v0A3,3,0,0,0,76.69,57a.41.41,0,0,0,0-.11V35.53A.57.57,0,0,0,76.69,35.4ZM74.86,58.26a1.89,1.89,0,0,1-1.32.54,1.88,1.88,0,0,1-1.88-1.87V35.53a1.9,1.9,0,0,1,1.88-1.87h.18a1.9,1.9,0,0,1,1.48,1,1.94,1.94,0,0,1,.2.63c0,.07,0,.14,0,.22v21.4c0,.08,0,.15,0,.22a2.07,2.07,0,0,1-.2.64A2.16,2.16,0,0,1,74.86,58.26Z"/><path class="cls-2" d="M75.65,33.18a1.34,1.34,0,0,1,.21.2h0A1.9,1.9,0,0,0,75.65,33.18Zm2.7-2.32A27.05,27.05,0,0,0,72.08,15.8,4,4,0,0,0,71,11.74a29.93,29.93,0,0,0-40.5,0,4,4,0,0,0-1.12,4.07,27.14,27.14,0,0,0-6.27,15,2.69,2.69,0,0,0-1.41,2.37v1.23a2.59,2.59,0,0,0,.07.65.62.62,0,0,0,.32.4l.07,0a.66.66,0,0,0,.44,0,10,10,0,0,1,2.15-.47h0c.31,0,.61-.06.91-.07a.72.72,0,0,0,.35-.11.66.66,0,0,0,.21-.23,1.9,1.9,0,0,1,1.47-1h0a.64.64,0,0,0,.58-.69,2.71,2.71,0,0,0-.12-.58,2.75,2.75,0,0,0-1-1.39,23.16,23.16,0,0,1,5.16-12.42,4,4,0,0,0,3.61-.95,21.92,21.92,0,0,1,29.63,0,4,4,0,0,0,3.6.95A23.23,23.23,0,0,1,74.31,31a2.74,2.74,0,0,0-1,1.41,2.71,2.71,0,0,0-.12.58.64.64,0,0,0,.58.69,1.9,1.9,0,0,1,1.48,1,.67.67,0,0,0,.56.34c.3,0,.6,0,.91.07h0a9.39,9.39,0,0,1,2.15.47l.21,0a.65.65,0,0,0,.56-.32.77.77,0,0,0,.07-.16,2.57,2.57,0,0,0,.08-.65V33.22A2.71,2.71,0,0,0,78.35,30.86Zm-2.2,2.88h0a3,3,0,0,0-.23-.3l0-.06h0a1.9,1.9,0,0,0-.21-.19l-.07-.07a2.27,2.27,0,0,0-.25-.18,3,3,0,0,0-.35-.22l-.36-.16h0a1.4,1.4,0,0,1,.65-.62.64.64,0,0,0,.39-.64,24.53,24.53,0,0,0-5.79-13.88.64.64,0,0,0-.71-.19,2.67,2.67,0,0,1-2.73-.55,23.2,23.2,0,0,0-31.38,0,2.66,2.66,0,0,1-2.76.56.64.64,0,0,0-.7.2A24.41,24.41,0,0,0,25.8,31.3a.65.65,0,0,0,.38.64,1.43,1.43,0,0,1,.65.61l-.17.06-.11,0a.91.91,0,0,0-.17.09,3,3,0,0,0-.9.73,1.55,1.55,0,0,0-.19.24s0,0,0,0A12.3,12.3,0,0,0,23,34.1v-.88a1.4,1.4,0,0,1,.95-1.32.63.63,0,0,0,.44-.56,25.75,25.75,0,0,1,6.24-15,.68.68,0,0,0,.11-.67,2.69,2.69,0,0,1,.66-3,28.65,28.65,0,0,1,38.74,0,2.68,2.68,0,0,1,.66,3,.65.65,0,0,0,.11.67,25.8,25.8,0,0,1,6.24,15,.65.65,0,0,0,.43.56,1.4,1.4,0,0,1,.93,1.32v.88A12.19,12.19,0,0,0,76.15,33.74Zm-.5-.56a1.34,1.34,0,0,1,.21.2h0A1.9,1.9,0,0,0,75.65,33.18Z"/><circle class="cls-4" cx="50.39" cy="42.34" r="11.01"/><path class="cls-4" d="M34.25,73.19A16.16,16.16,0,0,1,57.16,58.52"/></svg>