<svg id="Layer_1" data-name="Layer 1" xmlns="http://www.w3.org/2000/svg" viewBox="0 0 100 100"><defs><style>.cls-1{fill:#f2f2f2;}.cls-2{fill:gray;}.cls-3{fill:#6dd9a8;}.cls-4{fill:#61b2d9;}.cls-5{fill:#47b3e6;}.cls-6{fill:#fcd16a;}</style></defs><rect class="cls-1" x="16.36" y="6.33" width="66.12" height="88.03"/><path class="cls-2" d="M72.63,52a2,2,0,0,0-2-2H46.2a2,2,0,0,0,0,4.07H70.6A2,2,0,0,0,72.63,52Z"/><path class="cls-2" d="M46.2,62.2H58.4a2,2,0,0,0,0-4.07H46.2a2,2,0,0,0,0,4.07Z"/><path class="cls-2" d="M66.53,31.7H46.2a2,2,0,0,0,0,4.07H66.53a2,2,0,1,0,0-4.07Z"/><path class="cls-2" d="M61.12,19.39H36.57a2.27,2.27,0,0,0-2.45,2,2.27,2.27,0,0,0,2.45,2H61.12a2.27,2.27,0,0,0,2.45-2A2.27,2.27,0,0,0,61.12,19.39Z"/><path class="cls-2" d="M46.2,43.9h6.1a2,2,0,1,0,0-4.07H46.2a2,2,0,0,0,0,4.07Z"/><path class="cls-2" d="M54.34,70.33a2,2,0,0,0-2-2H46.2a2,2,0,0,0,0,4.06h6.1A2,2,0,0,0,54.34,70.33Z"/><path class="cls-2" d="M46.2,76.43a2,2,0,0,0,0,4.07h4.07a2,2,0,0,0,0-4.07Z"/><path class="cls-3" d="M38.07,52a2,2,0,0,0-2-2H27.91a2,2,0,0,0-2,2v8.14a2,2,0,0,0,2,2H36a2,2,0,0,0,2-2ZM34,58.13H29.94V54.07H34Z"/><path class="cls-3" d="M38.07,33.74a2,2,0,0,0-2-2H27.91a2,2,0,0,0-2,2v8.13a2,2,0,0,0,2,2H36a2,2,0,0,0,2-2ZM34,39.83H29.94V35.77H34Z"/><path class="cls-3" d="M36,68.3H27.91a2,2,0,0,0-2,2v8.13a2,2,0,0,0,2,2H36a2,2,0,0,0,2-2V70.33A2,2,0,0,0,36,68.3Zm-2,8.13H29.94V72.36H34Z"/><path class="cls-4" d="M79.33,1.44H20.67A5.38,5.38,0,0,0,15.3,6.8V93.2a5.38,5.38,0,0,0,5.37,5.36H79.33A5.38,5.38,0,0,0,84.7,93.2V6.8A5.38,5.38,0,0,0,79.33,1.44ZM50,4.84a.75.75,0,1,1-.75.75A.75.75,0,0,1,50,4.84ZM80.6,90.22a.53.53,0,0,1-.53.53H19.93a.53.53,0,0,1-.53-.53V9.39a.53.53,0,0,1,.53-.53H80.07a.53.53,0,0,1,.53.53Z"/><path class="cls-5" d="M52.46,94.36A2.46,2.46,0,1,1,50,91.9,2.47,2.47,0,0,1,52.46,94.36Z"/><path class="cls-5" d="M51.4,94.36a1.4,1.4,0,1,0-1.4,1.4A1.4,1.4,0,0,0,51.4,94.36Z"/><path class="cls-6" d="M60.7,79.46a4.46,4.46,0,0,1,.45-2.23,7.52,7.52,0,0,1,1.76-1.72,5.77,5.77,0,0,0,1.23-1.36,2.93,2.93,0,0,0,.46-1.63A2.22,2.22,0,0,0,64.07,71a1.94,1.94,0,0,0-1.5-.57,2.05,2.05,0,0,0-1.36.48,1.73,1.73,0,0,0-.57,1.4H57.55l0-.06A3.72,3.72,0,0,1,58.9,69a5.75,5.75,0,0,1,3.67-1.11,5.57,5.57,0,0,1,3.82,1.23,4.26,4.26,0,0,1,1.38,3.35A4.44,4.44,0,0,1,67,75.05a7.26,7.26,0,0,1-2,2,2.59,2.59,0,0,0-.87,1,3.83,3.83,0,0,0-.21,1.42ZM63.88,84H60.69V81.24h3.19Z"/><path class="cls-6" d="M71.18,74a3.62,3.62,0,0,1,.36-1.78A5.73,5.73,0,0,1,73,70.87a4.5,4.5,0,0,0,1-1.09,2.38,2.38,0,0,0,.37-1.31,1.77,1.77,0,0,0-.42-1.25,1.56,1.56,0,0,0-1.2-.45,1.67,1.67,0,0,0-1.1.38,1.43,1.43,0,0,0-.45,1.12H68.66l0,0a3,3,0,0,1,1.1-2.56,4.62,4.62,0,0,1,2.94-.88,4.45,4.45,0,0,1,3,1,3.69,3.69,0,0,1,.46,4.73,5.81,5.81,0,0,1-1.62,1.58,2,2,0,0,0-.69.82A3.09,3.09,0,0,0,73.71,74Zm2.55,3.6H71.17V75.45h2.56Z"/></svg>