<svg id="Layer_1" data-name="Layer 1" xmlns="http://www.w3.org/2000/svg" viewBox="0 0 100 100"><defs><style>.cls-1{fill:#47b3e6;}</style></defs><path class="cls-1" d="M47.8,48.49H60.46a17.9,17.9,0,0,0-1.61,1.13A15.72,15.72,0,0,0,56.44,52H47.8a1.75,1.75,0,0,1,0-3.5Z"/><path class="cls-1" d="M70.52,50.35A1.74,1.74,0,0,1,68.78,52H64.42A17.19,17.19,0,0,1,70.52,50.35Z"/><path class="cls-1" d="M47.8,55.49h6.49A15.62,15.62,0,0,0,53.21,59H47.8a1.75,1.75,0,0,1,0-3.5Z"/><path class="cls-1" d="M60,57.24A1.74,1.74,0,0,1,58.34,59a10.06,10.06,0,0,1,1.28-2.87A1.73,1.73,0,0,1,60,57.24Z"/><path class="cls-1" d="M65.28,32.76H47.8a1.75,1.75,0,1,0,0,3.49H65.28a1.75,1.75,0,1,0,0-3.49Z"/><path class="cls-1" d="M60.63,22.17H39.51a2,2,0,0,0-2.11,1.75,2,2,0,0,0,2.11,1.75H60.63a2,2,0,0,0,2.11-1.75A2,2,0,0,0,60.63,22.17Z"/><path class="cls-1" d="M47.8,43.25H53a1.75,1.75,0,0,0,0-3.5H47.8a1.75,1.75,0,0,0,0,3.5Z"/><path class="cls-1" d="M54.52,66.93a1.77,1.77,0,0,1-1.47.8H47.8a1.75,1.75,0,0,1,0-3.5H53c0,.13.07.26.11.39l.07.19A5,5,0,0,0,54.52,66.93Z"/><path class="cls-1" d="M47.8,71.23a1.75,1.75,0,1,0,0,3.49h3.5a1.75,1.75,0,0,0,0-3.49Z"/><path class="cls-1" d="M39.06,48.49h-7a1.75,1.75,0,0,0-1.74,1.75v7A1.75,1.75,0,0,0,32.06,59h7a1.76,1.76,0,0,0,1.75-1.75v-7A1.76,1.76,0,0,0,39.06,48.49Zm-1.75,7h-3.5V52h3.5Z"/><path class="cls-1" d="M39.06,32.76h-7a1.74,1.74,0,0,0-1.74,1.75v7a1.74,1.74,0,0,0,1.74,1.75h7a1.75,1.75,0,0,0,1.75-1.75v-7A1.75,1.75,0,0,0,39.06,32.76Zm-1.75,7h-3.5v-3.5h3.5Z"/><path class="cls-1" d="M39.06,64.23h-7A1.74,1.74,0,0,0,30.32,66v7a1.74,1.74,0,0,0,1.74,1.75h7A1.75,1.75,0,0,0,40.81,73V66A1.75,1.75,0,0,0,39.06,64.23Zm-1.75,7h-3.5v-3.5h3.5Z"/><path class="cls-1" d="M51.07,84.53a2.12,2.12,0,1,0,2.11,2.12A2.12,2.12,0,0,0,51.07,84.53Zm0,3.32a1.2,1.2,0,1,1,1.2-1.2A1.2,1.2,0,0,1,51.07,87.85ZM76.93,13.11H25.21a.46.46,0,0,0-.46.46V83.09a.45.45,0,0,0,.46.45H62.34c0-.31,0-.61,0-.91H25.66V14H76.47V45.46c.31,0,.61.07.91.12v-32A.46.46,0,0,0,76.93,13.11ZM51.07,9.65a.65.65,0,1,0,.64.65A.65.65,0,0,0,51.07,9.65Zm25.86,3.46H25.21a.46.46,0,0,0-.46.46V83.09a.45.45,0,0,0,.46.45H62.34c0-.31,0-.61,0-.91H25.66V14H76.47V45.46c.31,0,.61.07.91.12v-32A.46.46,0,0,0,76.93,13.11ZM51.07,84.53a2.12,2.12,0,1,0,2.11,2.12A2.12,2.12,0,0,0,51.07,84.53Zm0,3.32a1.2,1.2,0,1,1,1.2-1.2A1.2,1.2,0,0,1,51.07,87.85Zm0-78.2a.65.65,0,1,0,.64.65A.65.65,0,0,0,51.07,9.65ZM76.29,6.73H25.84a4.62,4.62,0,0,0-4.62,4.61V85.65a4.62,4.62,0,0,0,4.62,4.61H62.27V90a4.44,4.44,0,0,1,0-.63H25.84a3.7,3.7,0,0,1-3.7-3.7V11.34a3.7,3.7,0,0,1,3.7-3.7H76.29A3.71,3.71,0,0,1,80,11.34v34.8c.31.08.61.17.91.27V11.34A4.62,4.62,0,0,0,76.29,6.73Zm.64,6.38H25.21a.46.46,0,0,0-.46.46V83.09a.45.45,0,0,0,.46.45H62.34c0-.31,0-.61,0-.91H25.66V14H76.47V45.46c.31,0,.61.07.91.12v-32A.46.46,0,0,0,76.93,13.11ZM51.07,84.53a2.12,2.12,0,1,0,2.11,2.12A2.12,2.12,0,0,0,51.07,84.53Zm0,3.32a1.2,1.2,0,1,1,1.2-1.2A1.2,1.2,0,0,1,51.07,87.85Zm0-78.2a.65.65,0,1,0,.64.65A.65.65,0,0,0,51.07,9.65Z"/><path class="cls-1" d="M67.27,90v8.1h9.52V90Zm17-36.06a13.23,13.23,0,0,0-3.35-2.15c-.3-.14-.6-.27-.91-.38a16,16,0,0,0-2.62-.73c-.3-.06-.6-.12-.91-.16a24.19,24.19,0,0,0-3.6-.26c-.81,0-1.59,0-2.35.11A17.19,17.19,0,0,0,64.42,52,13.39,13.39,0,0,0,62,53.55a10.26,10.26,0,0,0-2.33,2.56A10.06,10.06,0,0,0,58.34,59a13.91,13.91,0,0,0-.49,4.09l.06.19h9.2a5.26,5.26,0,0,1,1.7-4.17,6,6,0,0,1,4.06-1.43,6.46,6.46,0,0,1,3.6.93,4.92,4.92,0,0,1,.89.75l0,0A6.58,6.58,0,0,1,78.93,64a9,9,0,0,1-1.37,4.86l-.18.27a11.25,11.25,0,0,1-.91,1.21,18,18,0,0,1-2.59,2.56A22.34,22.34,0,0,0,68.65,78a10.24,10.24,0,0,0-1.25,4.6c0,.29-.05.6-.07.91s0,.74,0,1.13h9.42c0-.4,0-.78,0-1.13a10,10,0,0,1,.58-3.1.3.3,0,0,1,0-.08,7.88,7.88,0,0,1,2.55-3l.07,0c.31-.2.61-.41.91-.63A21.1,21.1,0,0,0,86,71.52a13.13,13.13,0,0,0,2.42-7.61A12.71,12.71,0,0,0,84.26,53.92Z"/><path class="cls-1" d="M77.34,80.44a10,10,0,0,0-.58,3.1h.17a.45.45,0,0,0,.45-.45V80.36A.3.3,0,0,0,77.34,80.44Z"/><path class="cls-1" d="M87.16,48.24v3.45h4.06V48.24Zm7.23-15.36a7.05,7.05,0,0,0-4.85-1.57,7.24,7.24,0,0,0-4.65,1.42,4.72,4.72,0,0,0-1.74,4.05l0,.08h3.92a2.24,2.24,0,0,1,.73-1.78,2.58,2.58,0,0,1,1.72-.61,2.5,2.5,0,0,1,1.92.72,2.83,2.83,0,0,1,.66,2,3.67,3.67,0,0,1-.59,2.06A7,7,0,0,1,90,41a9.77,9.77,0,0,0-2.23,2.18A5.75,5.75,0,0,0,87.17,46h4a4.86,4.86,0,0,1,.26-1.8,3.2,3.2,0,0,1,1.1-1.3,9.28,9.28,0,0,0,2.57-2.5,5.57,5.57,0,0,0,1-3.24A5.43,5.43,0,0,0,94.39,32.88Z"/></svg>