<svg id="Layer_1" data-name="Layer 1" xmlns="http://www.w3.org/2000/svg" viewBox="0 0 100 100"><defs><style>.cls-1{fill:#47b3e6;}.cls-2{fill:#49bb88;}.cls-3{fill:#fcb918;}</style></defs><path class="cls-1" d="M64.32,91.38H54.91a4.75,4.75,0,0,1-4.74-4.75v-1.3a4.74,4.74,0,0,1,4.74-4.74h9.41a4.73,4.73,0,0,1,4.48,3.22h9.12c5.14,0,8.93-5,11.21-9.21a.89.89,0,0,1,.28-.3,14.12,14.12,0,0,0,6.13-8.49.82.82,0,0,1,1-.61.9.9,0,0,1,.55.38.8.8,0,0,1,.11.64c-.23.9-5.87,21.94-19.24,21.94H68.8A4.73,4.73,0,0,1,64.32,91.38Zm-9.41-9.15a3.1,3.1,0,0,0-3.1,3.1v1.3a3.11,3.11,0,0,0,3.1,3.11h9.41a3.09,3.09,0,0,0,3-2.55.82.82,0,0,1,.81-.67h9.75C85,86.52,89.73,79.77,92.51,74a16,16,0,0,1-2,1.6c-3.55,6.46-7.89,9.88-12.55,9.88H68.17a.82.82,0,0,1-.81-.67,3.09,3.09,0,0,0-3-2.55Z"/><path class="cls-2" d="M17.89,78.17h-.38a15.85,15.85,0,0,1,0-31.68h.34a.82.82,0,0,1,.82.82V77.35A.82.82,0,0,1,17.89,78.17Zm-.82-30a14.21,14.21,0,0,0,0,28.35Z"/><path class="cls-3" d="M21.08,79.89a4,4,0,0,1-2.84-1.18,3.91,3.91,0,0,1-.72-1,4,4,0,0,1-.45-1.83V48.76a4,4,0,0,1,3.61-4l.4,0a4,4,0,0,1,4,4V75.88A4,4,0,0,1,21.08,79.89Zm0-33.5-.26,0a2.36,2.36,0,0,0-2.11,2.35V75.88A2.39,2.39,0,0,0,19,77a2.12,2.12,0,0,0,.44.59,2.31,2.31,0,0,0,1.67.7,2.38,2.38,0,0,0,2.38-2.37V48.76a2.39,2.39,0,0,0-2.38-2.37Z"/><path class="cls-2" d="M82.11,77.7a.82.82,0,0,1-.82-.82V46.82a.82.82,0,0,1,.82-.82,3.1,3.1,0,0,1,.43,0,15.16,15.16,0,0,1,4.23.73h.06a15.85,15.85,0,0,1-4.38,30.93Zm.82-30V76A14.2,14.2,0,0,0,96.18,61.85a14.17,14.17,0,0,0-9.81-13.51l-.05,0A14.19,14.19,0,0,0,82.93,47.68Z"/><path class="cls-3" d="M78.93,79.89a4,4,0,0,1-4-4V48.76a3.91,3.91,0,0,1,1.18-2.83,4,4,0,0,1,6.4,1,4,4,0,0,1,.44,1.83V75.88a3.94,3.94,0,0,1-.45,1.84,3.84,3.84,0,0,1-.73,1A3.92,3.92,0,0,1,78.93,79.89Zm0-33.5a2.41,2.41,0,0,0-2.38,2.37V75.88a2.38,2.38,0,0,0,2.38,2.37,2.34,2.34,0,0,0,1.67-.69,2.3,2.3,0,0,0,.7-1.68V48.76A2.29,2.29,0,0,0,81,47.69a2.38,2.38,0,0,0-1.87-1.29Z"/><path class="cls-2" d="M85.92,48.83a.75.75,0,0,1-.26,0,14.26,14.26,0,0,0-3.92-.67.79.79,0,0,1-.7-.44,2.39,2.39,0,0,0-1.87-1.28.82.82,0,0,1-.74-.88A3.4,3.4,0,0,1,79.91,43a29.44,29.44,0,0,0-6.56-15.74,5,5,0,0,1-4.56-1.19,27.77,27.77,0,0,0-37.55,0,5,5,0,0,1-4.57,1.21A29.35,29.35,0,0,0,20.12,43a3.35,3.35,0,0,1,1.46,2.5.82.82,0,0,1-.73.88A2.39,2.39,0,0,0,19,47.68a.77.77,0,0,1-.7.44,14.14,14.14,0,0,0-3.92.67.82.82,0,0,1-.65-.06.83.83,0,0,1-.4-.5,3.72,3.72,0,0,1-.1-.84V45.84a3.39,3.39,0,0,1,1.8-3,34.33,34.33,0,0,1,8-19.06,5.05,5.05,0,0,1,1.41-5.17,37.94,37.94,0,0,1,51.31,0,5.13,5.13,0,0,1,1.42,5.16,34.42,34.42,0,0,1,8,19.07,3.44,3.44,0,0,1,1.77,3v1.55a3.22,3.22,0,0,1-.1.84A.81.81,0,0,1,85.92,48.83Zm0-.82h0ZM82.24,46.5a16.09,16.09,0,0,1,2.93.45V45.84A1.8,1.8,0,0,0,84,44.16a.84.84,0,0,1-.54-.71,32.8,32.8,0,0,0-7.9-19,.82.82,0,0,1-.14-.85,3.42,3.42,0,0,0-.84-3.81,36.28,36.28,0,0,0-49.08,0,3.39,3.39,0,0,0-.84,3.82.82.82,0,0,1-.14.84,32.75,32.75,0,0,0-7.91,19,.8.8,0,0,1-.55.71,1.78,1.78,0,0,0-1.2,1.68V47a16.09,16.09,0,0,1,2.93-.45,4,4,0,0,1,2-1.52,1.71,1.71,0,0,0-.83-.76.82.82,0,0,1-.48-.82,31,31,0,0,1,7.32-17.58.83.83,0,0,1,.89-.24,3.4,3.4,0,0,0,3.49-.71,29.4,29.4,0,0,1,39.76,0,3.39,3.39,0,0,0,3.46.69.83.83,0,0,1,.9.25,31,31,0,0,1,7.33,17.58.81.81,0,0,1-.48.81,1.87,1.87,0,0,0-.84.78A4.07,4.07,0,0,1,82.24,46.5Z"/></svg>